<svg xmlns="http://www.w3.org/2000/svg" width="85" height="224" fill="none"><rect id="backgroundrect" width="100%" height="100%" x="0" y="0" fill="none" stroke="none"/><style xmlns="http://www.w3.org/2000/svg">
	.flow-chart-dotted-line {
		stroke-dasharray: 1 10;
		stroke-dashoffset: 8;
		animation: u .5s linear infinite
	}

	.flow-chart-dotted-line.-is-reverse {
		animation: u .5s linear reverse infinite
	}

	@keyframes u {
		to {
			stroke-dashoffset: 30
		}
	}
</style><defs><linearGradient id="paint0_linear" x1="1.200471797459562" y1="0.49999951732729203" x2="-0.004329573940223371" y2="0.49999951732729203"><stop stop-color="white"/><stop offset="1" stop-color="white" stop-opacity="0"/></linearGradient><linearGradient id="paint1_linear" x1="1.361775016784668" y1="Infinity" x2="0.24426751136779784" y2="Infinity"><stop stop-color="white"/><stop offset="1" stop-color="white" stop-opacity="0"/></linearGradient><linearGradient id="paint2_linear" x1="1.2004718243236272" y1="0.49999877137726767" x2="-0.004330957439583792" y2="0.49999877137726767"><stop stop-color="white"/><stop offset="1" stop-color="white" stop-opacity="0"/></linearGradient></defs><g class="currentLayer" style=""><title>Layer 1</title><path class="flow-chart-dotted-line selected" d="M83 207C56.6429 207 56.7645 207.334 56.7645 165.834C56.7797 121.018 56.6581 120.064 33.5539 120.064C11.9696 120.064 12 120.064 12 120.064" stroke="#e9b9f7" stroke-width="3" stroke-miterlimit="10" stroke-linecap="round" stroke-dasharray="1 10" id="svg_1" stroke-opacity="1"/><path class="flow-chart-dotted-line selected" d="M82 112C59.4418 112 2 112 2 112" stroke="#e9b9f7" stroke-width="3" stroke-miterlimit="10" stroke-linecap="round" stroke-dasharray="1 10" id="svg_2" stroke-opacity="1"/><path class="flow-chart-dotted-line selected" d="M83 17.0001C56.6429 17.0001 56.7645 16.6662 56.7645 58.1663C56.7797 102.982 56.6581 103.936 33.5538 103.936C11.9696 103.936 12 103.936 12 103.936" stroke="#e9b9f7" stroke-width="3" stroke-miterlimit="10" stroke-linecap="round" stroke-dasharray="1 10" id="svg_3" stroke-opacity="1"/></g></svg>