<svg width="7042" height="6102" viewBox="0 0 7042 6102" fill="none" xmlns="http://www.w3.org/2000/svg">
<path d="M3403.63 3696.4L6255.94 798.623C6548 501.861 6337.74 0 5921.32 0H3403.63V3696.4Z" fill="url(#paint0_linear_970_224)"/>
<path d="M3521 2405.6L668.72 5303.38C376.615 5600.14 586.887 6102 1003.33 6102H3521V2405.6Z" fill="url(#paint1_linear_970_224)"/>
<path d="M1333.9 5208.39C761.622 4636.21 440.123 3860.18 440.123 3051C440.123 2241.82 761.622 1465.79 1333.9 893.62C1906.17 321.444 2682.34 2.63901e-10 3491.66 2.63901e-10C4300.97 -0.000336312 5077.14 321.443 5649.42 893.614L3491.66 3051L1333.9 5208.39Z" fill="url(#paint2_linear_970_224)"/>
<path d="M5512.78 1118.24C6041.04 1646.4 6337.8 2362.74 6337.8 3109.67C6337.8 3856.6 6041.04 4572.94 5512.78 5101.1C4984.53 5629.26 4268.06 5925.98 3521 5925.98C2773.94 5925.98 2057.47 5629.26 1529.22 5101.1L3521 3109.67L5512.78 1118.24Z" fill="url(#paint3_linear_970_224)"/>
<path d="M3521 4752.52C4460.89 4752.52 5222.82 3990.72 5222.82 3051C5222.82 2111.28 4460.89 1349.48 3521 1349.48C2581.11 1349.48 1819.18 2111.28 1819.18 3051C1819.18 3990.72 2581.11 4752.52 3521 4752.52Z" fill="white" stroke="#1365FF" stroke-width="8"/>
<path d="M4900.06 1789.53L5369.53 1320.14M2200.63 1789.53L1731.16 1320.14" stroke="url(#paint4_linear_970_224)" stroke-width="8"/>
<path d="M3521 1232.13V469.385" stroke="url(#paint5_linear_970_224)" stroke-width="8"/>
<path d="M2992.85 469.385H4049.15" stroke="url(#paint6_linear_970_224)" stroke-width="8"/>
<path d="M3286.27 1877.54H3755.73V3285.69H3286.27V1877.54Z" fill="url(#paint7_linear_970_224)"/>
<path d="M4459.93 2816.31V3285.69H3286.27V2816.31H4459.93Z" fill="url(#paint8_linear_970_224)"/>
<defs>
<linearGradient id="paint0_linear_970_224" x1="4897.67" y1="0" x2="4897.67" y2="3696.4" gradientUnits="userSpaceOnUse">
<stop stop-color="#FFB800"/>
<stop offset="1" stop-color="#FE823A" stop-opacity="0"/>
</linearGradient>
<linearGradient id="paint1_linear_970_224" x1="2026.96" y1="2405.6" x2="2026.96" y2="6102" gradientUnits="userSpaceOnUse">
<stop stop-color="#FFB800"/>
<stop offset="0.0001" stop-color="#FFB800" stop-opacity="0"/>
<stop offset="1" stop-color="#FE823A"/>
</linearGradient>
<linearGradient id="paint2_linear_970_224" x1="3044.77" y1="0" x2="3044.77" y2="5208.39" gradientUnits="userSpaceOnUse">
<stop stop-color="#FFB800"/>
<stop offset="1" stop-color="#FE823A" stop-opacity="0"/>
</linearGradient>
<linearGradient id="paint3_linear_970_224" x1="3933.51" y1="1118.24" x2="3933.51" y2="5925.98" gradientUnits="userSpaceOnUse">
<stop stop-color="#FFB800" stop-opacity="0"/>
<stop offset="1" stop-color="#FE823A"/>
</linearGradient>
<linearGradient id="paint4_linear_970_224" x1="3550.34" y1="1320.14" x2="3550.34" y2="1789.53" gradientUnits="userSpaceOnUse">
<stop stop-color="#FFB800"/>
<stop offset="1" stop-color="#FE823A"/>
</linearGradient>
<linearGradient id="paint5_linear_970_224" x1="3521.5" y1="469.385" x2="3521.5" y2="1232.13" gradientUnits="userSpaceOnUse">
<stop stop-color="#FFB800"/>
<stop offset="1" stop-color="#FE823A"/>
</linearGradient>
<linearGradient id="paint6_linear_970_224" x1="3521" y1="469.385" x2="3521" y2="470.385" gradientUnits="userSpaceOnUse">
<stop stop-color="#FFB800"/>
<stop offset="1" stop-color="#FE823A"/>
</linearGradient>
<linearGradient id="paint7_linear_970_224" x1="3521" y1="1877.54" x2="3521" y2="3285.69" gradientUnits="userSpaceOnUse">
<stop stop-color="#FFB800"/>
<stop offset="1" stop-color="#FE823A"/>
</linearGradient>
<linearGradient id="paint8_linear_970_224" x1="3873.1" y1="2816.31" x2="3873.1" y2="3285.69" gradientUnits="userSpaceOnUse">
<stop stop-color="#FFB800"/>
<stop offset="1" stop-color="#FE823A"/>
</linearGradient>
</defs>
</svg>
