<svg width="154" height="34" viewBox="0 0 154 34" fill="none" xmlns="http://www.w3.org/2000/svg">
<path d="M133.084 19.5071C133.904 21.7355 134.724 23.7613 135.544 25.9898C135.134 26.1924 134.724 26.1924 134.519 26.3949C131.648 26.8001 131.443 26.5975 130.623 23.9639C130.213 22.7484 129.803 21.3303 129.188 20.1148C128.162 20.1148 127.137 20.1148 126.112 20.1148C125.702 21.7355 125.497 23.3562 125.086 24.9768C124.881 26.1924 124.676 26.3949 123.241 26.3949C122.831 26.3949 122.421 26.3949 121.805 26.3949C120.575 26.3949 120.37 26.1924 120.78 24.9768C121.19 22.951 121.6 20.7226 122.216 18.6967C122.831 15.8606 123.446 13.227 124.061 10.3908C124.266 9.58049 124.676 9.17529 125.497 9.17529C128.367 9.17529 131.238 9.17529 134.109 9.37789C136.775 9.58049 137.8 11.4037 137.185 14.4425C136.775 16.6709 135.75 18.6967 133.084 19.5071ZM126.727 17.0761C127.957 17.0761 128.983 17.0761 130.213 17.0761C131.238 17.0761 132.264 16.6709 132.469 15.4554C132.674 14.8476 132.674 14.2399 132.674 13.6321C132.674 12.8218 132.264 12.4166 131.443 12.4166C130.213 12.4166 128.983 12.4166 127.547 12.4166C127.547 13.8347 127.137 15.4554 126.727 17.0761Z" fill="white" fill-opacity="0.7"/>
<path d="M138.005 26.1924C138.621 24.9769 139.031 23.7614 139.646 22.7484C141.491 18.6967 143.337 14.8477 145.182 10.796C145.798 9.58049 146.618 9.17529 147.848 9.17529C149.284 9.17529 150.514 9.17529 151.949 9.17529C153.385 9.17529 153.59 9.37789 153.59 10.796C153.59 13.227 153.795 15.4554 153.795 17.8864C153.795 20.3174 154 22.7484 154 25.1794C154 26.3949 153.795 26.5975 152.565 26.5975C149.489 26.5975 149.899 26.5975 149.899 24.1665C149.899 23.7614 149.899 23.3562 149.899 22.7484C148.053 22.7484 146.208 22.7484 144.362 22.7484C143.952 23.5588 143.542 24.5717 143.132 25.382C142.722 26.1924 142.312 26.5975 141.286 26.3949C140.671 26.3949 140.056 26.3949 139.441 26.3949C138.826 26.3949 138.621 26.1924 138.005 26.1924ZM149.694 19.5071C149.694 17.0761 149.694 14.4425 149.694 12.0115C149.284 12.0115 149.079 12.0115 148.873 12.0115C147.848 14.4425 146.618 16.8735 145.593 19.5071C146.823 19.5071 148.258 19.5071 149.694 19.5071Z" fill="white" fill-opacity="0.7"/>
<path d="M50.4452 17.4812C51.4705 20.3174 52.7009 23.1536 53.9312 26.1924C52.9059 26.3949 52.2907 26.3949 51.6756 26.3949C49.625 26.3949 49.625 26.3949 48.8047 24.5717C47.9845 22.7484 47.3693 20.9252 46.5491 19.1019C45.7288 19.1019 45.1136 19.1019 44.2934 19.1019C43.8833 21.1278 43.4732 23.1536 43.063 25.382C42.858 26.1924 42.4479 26.5975 41.6276 26.5975C41.0124 26.5975 40.1922 26.5975 39.577 26.5975C38.9619 26.5975 38.7568 26.1924 38.7568 25.5846C39.1669 23.3562 39.577 21.1278 40.1922 18.8993C40.8074 16.2657 41.4225 13.4296 41.8327 10.796C42.0377 9.58049 42.2428 9.37789 43.6782 9.37789C44.4985 9.37789 45.3187 9.37789 46.344 9.37789C45.9339 11.6063 45.5238 13.6321 45.1136 15.658C45.9339 15.658 46.5491 15.658 47.1642 15.658C48.3946 14.0373 49.83 12.4166 51.0604 10.5934C51.8806 9.58049 52.7009 9.17529 53.9312 9.17529C54.7515 9.17529 55.5717 9.17529 56.3919 9.37789L56.597 9.58049C56.3919 9.98559 56.1869 10.5934 55.7767 10.796C53.9312 13.0244 52.0857 15.2528 50.4452 17.4812Z" fill="white" fill-opacity="0.7"/>
<path d="M68.2841 22.5458C66.4386 22.5458 64.593 22.5458 62.7475 22.5458C62.3374 23.3562 61.9273 24.1665 61.5172 24.9769C61.1071 25.9898 60.4919 26.3949 59.4666 26.3949C58.6463 26.3949 57.8261 26.3949 56.8008 26.3949C57.0059 25.7872 57.0058 25.382 57.2109 24.9769C59.4666 20.3174 61.7222 15.4554 63.7728 10.796C64.388 9.58049 65.0032 9.17529 66.2336 9.17529C67.669 9.17529 69.1044 9.17529 70.5398 9.17529C71.5651 9.17529 71.9752 9.58049 71.9752 10.5934C72.1803 15.4554 72.1803 20.3174 72.3853 24.9769C72.3853 26.3949 72.1803 26.3949 70.9499 26.5975C68.4892 26.5975 68.4892 26.5975 68.2841 24.1665C68.2841 23.5588 68.2841 23.1536 68.2841 22.5458ZM67.2589 12.0115C66.2336 14.4425 65.0032 16.8735 63.9779 19.5071C65.4133 19.5071 66.8487 19.5071 68.2841 19.5071C68.2841 17.0761 68.2841 14.4425 68.2841 12.0115C67.669 12.0115 67.4639 12.0115 67.2589 12.0115Z" fill="white" fill-opacity="0.7"/>
<path d="M110.527 9.17529C110.527 9.78299 110.527 10.3908 110.322 10.796C109.706 14.0373 109.091 17.0761 108.271 20.3174C108.271 20.7226 108.066 21.1278 108.066 21.5329C108.066 22.7484 108.476 23.1536 109.706 23.1536C110.117 23.1536 110.527 23.1536 110.937 23.1536C112.167 23.1536 112.987 22.7484 113.398 21.5329C114.013 19.5071 114.423 17.2787 115.038 15.2528C115.448 13.6321 115.858 12.0115 116.063 10.1882C116.268 9.37789 116.678 9.17529 117.294 9.17529C118.114 9.17529 119.139 9.17529 120.164 9.17529C120.164 9.78299 120.164 10.1882 120.164 10.5934C119.344 14.2399 118.524 17.8864 117.704 21.3303C117.294 23.1536 116.268 24.7743 114.423 25.7872C112.372 26.8001 110.322 26.8001 108.066 26.5975C107.656 26.5975 107.246 26.5975 106.836 26.3949C104.785 25.7872 103.76 24.3691 103.965 21.9381C104.17 19.5071 104.785 17.0761 105.195 14.8477C105.4 13.227 105.81 11.6063 106.22 10.1882C106.425 9.58049 106.631 9.17529 107.451 9.17529C108.476 9.17529 109.501 9.17529 110.527 9.17529Z" fill="white" fill-opacity="0.7"/>
<path d="M97.6088 12.6192C96.7878 16.8735 95.7628 20.9252 94.9428 24.9769C94.7378 26.3949 94.5328 26.5975 93.0968 26.5975C92.6868 26.5975 92.2768 26.5975 91.6618 26.5975C90.6368 26.5975 90.4318 26.1924 90.6368 25.1794C91.4568 21.1278 92.2768 17.0761 93.3018 13.0244C93.3018 13.0244 93.3018 12.8218 93.3018 12.6192C92.4818 12.6192 91.6618 12.6192 90.6368 12.6192C90.2268 12.6192 89.8158 12.6192 89.4058 12.4166C89.2008 12.4166 88.9958 12.2141 88.9958 12.2141C88.5858 11.6063 89.4058 9.37789 90.2268 9.17529C90.6368 9.17529 90.8418 9.17529 91.2518 9.17529C94.7378 9.17529 98.0188 9.17529 101.505 9.17529C101.915 9.17529 102.325 9.17529 102.735 9.37789C102.94 9.37789 103.145 9.58049 103.145 9.78299C103.555 11.2011 102.53 12.6192 100.89 12.6192C99.6588 12.6192 98.6338 12.6192 97.6088 12.6192Z" fill="white" fill-opacity="0.7"/>
<path d="M83.0478 9.37789C82.0229 14.0373 81.2027 18.4942 80.1774 23.1536C81.6128 23.1536 82.8431 23.1536 84.0738 23.1536C84.8938 23.1536 85.7138 23.1536 86.3288 23.1536C86.9448 23.1536 87.3548 23.5588 87.1498 24.1665C86.7388 26.3949 86.7388 26.3949 84.2788 26.3949C81.8178 26.3949 79.3571 26.3949 76.8964 26.3949C76.4863 26.3949 75.8711 26.3949 75.2559 26.1924C75.461 25.382 75.461 24.5717 75.461 23.9639C76.4863 19.5071 77.3065 15.0502 78.3318 10.5934C78.5369 9.37789 78.742 9.17529 79.9723 9.17529C80.9976 9.17529 81.8178 9.17529 83.0478 9.37789Z" fill="white" fill-opacity="0.7"/>
<path d="M27.4781 15.05C28.2984 15.05 29.1186 15.05 30.1439 15.05C30.7591 15.05 31.1693 15.2526 31.5794 15.4552C32.6047 15.8603 32.6047 17.2784 31.5794 17.6836C31.1693 17.8862 30.5541 18.0889 29.9389 18.0889C28.2984 18.0889 26.6579 18.0889 25.0174 18.0889C24.6073 18.0889 23.9921 18.0887 23.582 17.6836C23.1719 17.481 22.7617 16.8732 22.7617 16.4681C22.7617 16.0629 23.1719 15.4552 23.582 15.2526C23.9921 15.05 24.4022 15.05 24.8123 15.05C25.8376 15.05 26.6579 15.05 27.4781 15.05Z" fill="white" fill-opacity="0.7"/>
<path d="M28.2984 6.74429C28.0934 7.14949 27.8883 7.75719 27.4782 8.16239C26.2478 9.58049 24.8124 10.796 23.582 12.0115C22.5567 13.0244 21.5314 13.0244 20.9163 12.4166C20.3011 11.8089 20.5061 10.796 21.3264 9.78299C22.5567 8.56749 23.582 7.35199 24.8124 6.33909C25.2225 5.93389 25.6326 5.52879 26.2478 5.32619C27.4782 4.92099 28.2984 5.52879 28.2984 6.74429Z" fill="white" fill-opacity="0.7"/>
<path d="M4.7164 18.2913C3.8961 18.2913 3.0759 18.2913 2.2556 18.2913C1.8455 18.2913 1.2303 18.2914 0.8202 18.0889C0.4101 17.8863 0 17.2784 0 16.8732C0 16.4681 0.4101 15.8603 0.8202 15.4552C1.0253 15.2526 1.6405 15.2526 2.0506 15.05C3.8961 15.05 5.5366 15.05 7.3821 15.05C8.6125 15.05 9.4327 15.6577 9.4327 16.6707C9.4327 17.6836 8.8175 18.0888 7.3821 18.2913H7.1771C6.5619 18.2913 5.5366 18.2913 4.7164 18.2913Z" fill="white" fill-opacity="0.7"/>
<path d="M4.51074 6.74427C4.71584 5.73137 5.53604 5.12357 6.56134 5.32617C6.97144 5.52877 7.58664 5.73137 7.79174 6.13657C9.02204 7.35207 10.2524 8.56757 11.4827 9.78307C11.6878 9.98567 12.0979 10.3908 12.0979 10.796C12.0979 11.2012 12.0979 11.8089 11.6878 12.2141C11.4827 12.4167 10.6625 12.6193 10.2524 12.4167C9.84234 12.2141 9.22714 12.0115 9.02204 11.6063C7.79174 10.3908 6.56134 9.17527 5.33094 7.95977C4.92084 7.75717 4.71584 7.14947 4.51074 6.74427Z" fill="white" fill-opacity="0.7"/>
<path d="M17.6354 5.52875C17.6354 6.33905 17.6354 7.35195 17.6354 8.16235C17.6354 8.56745 17.6354 8.97265 17.4304 9.17525C17.2253 9.78295 16.8152 10.1881 15.995 10.3907C15.1748 10.3907 14.7646 9.98555 14.5596 9.17525C14.5596 8.97265 14.3545 8.56745 14.3545 8.36495C14.3545 6.54165 14.3545 4.51585 14.3545 2.69255C14.3545 2.48995 14.3545 2.28735 14.3545 2.08475C14.5596 1.27445 15.1748 0.666748 15.995 0.666748C16.6102 0.666748 17.2253 1.47705 17.2253 2.28735C17.6354 3.30035 17.6354 4.31325 17.6354 5.52875Z" fill="white" fill-opacity="0.7"/>
<path d="M5.94688 28.826C5.12658 28.6234 4.51148 28.2182 4.71648 27.4079C4.71648 26.8001 5.12659 25.9898 5.53679 25.5846C6.76709 24.3691 7.99748 23.1536 9.22788 21.9381C9.43288 21.7355 9.43289 21.7355 9.63799 21.5329C10.2532 21.1278 11.0734 20.9252 11.6886 21.5329C12.3038 22.1407 12.0987 22.951 11.8937 23.5588C11.6886 23.7614 11.6886 23.964 11.4835 24.1665C10.2532 25.382 9.02279 26.5975 7.79239 27.813C7.17729 28.2182 6.56208 28.4208 5.94688 28.826Z" fill="white" fill-opacity="0.7"/>
<path d="M21.9412 20.925C22.5564 21.3301 23.1716 21.5328 23.3766 21.7354C24.812 22.9509 26.0424 24.369 27.4778 25.7871C27.6828 25.9897 27.6828 26.1922 27.8879 26.1922C28.298 27.0025 28.298 27.8129 27.8879 28.2181C27.4778 28.6233 26.4525 28.8257 25.8373 28.0154C24.1968 26.5973 22.5564 24.9766 21.121 23.356C20.7109 22.9508 20.7109 22.1405 20.9159 21.5327C20.9159 21.5327 21.5311 21.3301 21.9412 20.925Z" fill="white" fill-opacity="0.7"/>
<path d="M17.6354 28.4208C17.6354 29.4337 17.6354 30.244 17.6354 31.2569C17.6354 31.8647 17.4304 32.2699 17.0203 32.8776C16.4051 33.4854 15.5849 33.4854 14.9697 32.8776C14.7646 32.4724 14.5596 31.8647 14.5596 31.4595C14.5596 29.6363 14.5596 27.813 14.5596 25.9898C14.5596 25.7872 14.5596 25.382 14.7646 25.1794C14.9697 24.5717 15.3798 23.9639 16.2 23.9639C17.0203 23.9639 17.4304 24.5717 17.6354 25.1794C17.8405 25.7872 17.6354 26.3949 17.6354 27.0027C17.6354 27.4078 17.6354 28.0156 17.6354 28.4208Z" fill="white" fill-opacity="0.7"/>
<path d="M16.405 19.1019C15.1747 19.1019 14.1494 18.089 14.1494 16.8735C14.1494 15.658 15.1747 14.645 16.405 14.645C17.6354 14.645 18.6606 15.658 18.6606 16.8735C18.6606 18.089 17.6354 19.1019 16.405 19.1019Z" fill="white" fill-opacity="0.7"/>
</svg>
