<svg width="154" height="24" viewBox="0 0 154 24" fill="none" xmlns="http://www.w3.org/2000/svg">
<path d="M26.9553 0.333252L21.9404 7.48045H48.8955C50.1493 7.48045 50.1492 8.11105 49.5224 8.95185C48.8955 10.003 47.6418 11.6847 47.015 12.5255C46.5971 12.9459 45.9702 13.997 48.0597 13.997H58.9253C58.9253 13.997 60.597 11.4745 62.2686 9.37235C64.3581 6.42935 62.4776 0.333252 55.1642 0.333252H26.9553Z" fill="white" fill-opacity="0.7"/>
<path d="M20.0596 23.4563L29.8804 9.16211C29.8804 9.16211 40.746 9.16211 42.2087 9.16211C43.4624 9.16211 43.4624 9.79271 42.8356 10.6335C42.2087 11.6846 40.955 13.1561 40.3281 14.2071C39.9102 14.6275 39.2833 15.6786 41.3729 15.6786H57.8802C56.4175 17.5705 52.0296 23.4563 44.0893 23.4563H20.0596Z" fill="white" fill-opacity="0.7"/>
<path d="M76.6866 15.8889L71.4627 23.4565H57.2539L62.6867 15.8889H76.6866Z" fill="white" fill-opacity="0.7"/>
<path d="M98.4181 13.997H63.7314L73.3433 0.333252H87.3431L81.9104 8.11105H88.3881L93.8211 0.333252H107.821L98.4181 13.997Z" fill="white" fill-opacity="0.7"/>
<path d="M97.1636 15.8889L91.9396 23.4565H77.7305L82.9543 15.8889H97.1636Z" fill="white" fill-opacity="0.7"/>
<path d="M0 18.8318H20.6864L19.6416 20.5135H0V18.8318Z" fill="white" fill-opacity="0.7"/>
<path d="M0 15.8889H22.985L21.7313 17.3604H0V15.8889Z" fill="white" fill-opacity="0.7"/>
<path d="M0 21.9849H18.5971L17.5523 23.4563H0V21.9849Z" fill="white" fill-opacity="0.7"/>
<path d="M154 20.5135H133.313L134.358 18.8318H154V20.5135Z" fill="white" fill-opacity="0.7"/>
<path d="M154 23.4563L131.224 23.6665L132.269 21.9849H154V23.4563Z" fill="white" fill-opacity="0.7"/>
<path d="M136.448 15.8889H154V17.3604H135.403L136.448 15.8889Z" fill="white" fill-opacity="0.7"/>
<path d="M127.463 0.333252L118.06 13.997H103.015L112.418 0.333252H127.463Z" fill="white" fill-opacity="0.7"/>
<path d="M101.761 15.8889C101.761 15.8889 100.717 17.3604 100.299 18.2012C98.6271 20.7237 100.09 23.6667 105.941 23.6667H128.717L134.15 15.8889H101.761Z" fill="white" fill-opacity="0.7"/>
</svg>
