<svg width="154" height="22" viewBox="0 0 154 22" fill="none" xmlns="http://www.w3.org/2000/svg">
<path d="M24.5987 1.30762V4.13452H28.1128L21.9114 16.048L14.8832 4.13452H20.051V1.30762H0V4.13452H4.5477L13.643 21.0961H24.5987L33.694 4.13452H38.2417V1.30762H24.5987Z" fill="white" fill-opacity="0.7"/>
<path d="M113.485 1.30762V4.13452H117.206L110.798 16.048L103.976 4.13452H108.937V1.30762H88.8857V4.13452H93.4337L102.529 21.0961H113.692L122.58 4.13452H127.335V1.30762H113.485Z" fill="white" fill-opacity="0.7"/>
<path fill-rule="evenodd" clip-rule="evenodd" d="M66.3548 1.30762V4.13452H70.9025V17.8653H65.9414V20.8941H93.8472V11.8076H90.9532C90.7472 16.6538 86.6122 17.8653 84.7522 17.8653C83.0982 17.8653 79.9978 17.8653 79.9978 17.8653V4.13452H84.5452V1.30762H66.3548Z" fill="white" fill-opacity="0.7"/>
<path fill-rule="evenodd" clip-rule="evenodd" d="M50.4373 18.4711C47.75 18.4711 45.4762 15.2404 45.4762 11C45.4762 6.96151 47.75 3.52881 50.4373 3.52881C53.1245 3.52881 55.3983 6.75961 55.3983 11C55.6051 15.2404 53.3312 18.4711 50.4373 18.4711ZM50.644 0.903809C42.7889 0.903809 36.3809 5.54811 36.3809 11.2019C36.3809 16.8557 42.7889 21.5 50.644 21.5C58.499 21.5 64.9071 16.8557 64.9071 11.2019C64.9071 5.34611 58.499 0.903809 50.644 0.903809Z" fill="white" fill-opacity="0.7"/>
<path fill-rule="evenodd" clip-rule="evenodd" d="M139.53 18.4712C136.843 18.4712 134.569 15.0385 134.569 11C134.569 6.9615 136.843 3.5288 139.53 3.5288C142.217 3.5288 144.491 6.9615 144.491 11C144.491 15.0385 142.217 18.4712 139.53 18.4712ZM139.737 0.5C131.882 0.5 125.474 5.1442 125.474 11C125.474 16.8558 131.882 21.5 139.737 21.5C147.592 21.5 154 16.8558 154 11C154 5.1442 147.592 0.5 139.737 0.5Z" fill="white" fill-opacity="0.7"/>
</svg>
