<svg width="154" height="42" viewBox="0 0 154 42" fill="none" xmlns="http://www.w3.org/2000/svg">
<path d="M32.0615 22.3472H35.5691L39.0766 31.6746L42.5841 22.3472H45.8853L40.1082 36.6492H37.6323L32.0615 22.3472Z" fill="white" fill-opacity="0.7"/>
<path d="M51.2502 30.6384C51.2502 30.2239 51.0439 29.602 50.8375 29.3947C50.4249 28.9802 50.0122 28.7729 49.5996 28.7729C49.1869 28.7729 48.9806 28.7729 48.7743 28.9802C48.568 29.1875 48.3617 29.1875 48.1553 29.3947C47.949 29.602 47.7427 29.8093 47.7427 30.0166C47.5363 30.2238 47.5363 30.4311 47.5363 30.6384H51.2502ZM53.7261 34.7839C53.3134 35.4058 52.6945 35.8203 51.8692 36.2349C51.2502 36.6494 50.4249 36.6494 49.5996 36.6494C48.7743 36.6494 48.1553 36.4421 47.5363 36.2349C46.9173 36.0276 46.2984 35.613 45.8857 35.1985C45.4731 34.7839 45.0604 34.1621 44.8541 33.5403C44.6478 32.9184 44.4414 32.2966 44.4414 31.4675C44.4414 30.6384 44.6478 30.0166 44.8541 29.3947C45.0604 28.7729 45.4731 28.1511 45.8857 27.7365C46.2984 27.322 46.9173 26.9074 47.5363 26.7002C48.1553 26.4929 48.7743 26.2856 49.5996 26.2856C50.2185 26.2856 50.8375 26.4929 51.4565 26.7002C52.0755 26.9074 52.4881 27.322 52.9008 27.7365C53.3134 28.1511 53.5198 28.7729 53.7261 29.3947C53.9324 30.0166 54.1388 30.6384 54.1388 31.4675V32.5039H47.33C47.5363 33.1257 47.7427 33.5403 48.1553 33.9548C48.568 34.3694 48.9806 34.3694 49.5996 34.3694C50.0122 34.3694 50.4249 34.1621 50.8375 33.9548C51.2502 33.7475 51.4565 33.5403 51.6628 33.1257L53.7261 34.7839Z" fill="white" fill-opacity="0.7"/>
<path d="M58.884 26.9073V28.3582C59.2966 27.7364 59.503 27.3218 59.9156 26.9073C60.3283 26.7 60.9473 26.4927 61.5663 26.4927C61.7726 26.4927 61.9789 26.4927 61.9789 26.4927H62.3915V29.1873C62.1852 29.1873 61.9788 28.98 61.7725 28.98C61.5662 28.98 61.3599 28.98 61.1536 28.98C60.5346 28.98 60.1219 28.98 59.9156 29.1873C59.7093 29.3946 59.2966 29.6018 59.0903 29.8091C58.884 30.0164 58.884 30.4309 58.6776 30.8455C58.6776 31.2601 58.6776 31.6746 58.6776 32.0892V36.2347H55.7891V26.9073H58.884Z" fill="white" fill-opacity="0.7"/>
<path d="M64.0422 26.9074H66.9309V36.6494H64.0422V26.9074ZM63.8359 23.7983C63.8359 23.3837 64.0422 22.9692 64.2486 22.5546C64.6612 22.1401 65.0739 22.1401 65.4866 22.1401C65.8993 22.1401 66.3119 22.3473 66.7246 22.5546C67.1373 22.9692 67.1372 23.3837 67.1372 23.7983C67.1372 24.2128 66.9309 24.6274 66.7246 25.0419C66.5183 25.4565 65.8993 25.4565 65.4866 25.4565C65.0739 25.4565 64.6612 25.2492 64.2486 25.0419C63.8359 24.8346 63.8359 24.2128 63.8359 23.7983Z" fill="white" fill-opacity="0.7"/>
<path d="M75.8028 29.1873H73.1205V32.5037C73.1205 32.711 73.1205 32.9183 73.1205 33.3328C73.1205 33.5401 73.1206 33.7474 73.3269 33.9547C73.3269 34.1619 73.5332 34.162 73.7396 34.3692C73.9459 34.3692 74.1522 34.5765 74.5649 34.5765C74.7712 34.5765 74.9775 34.5765 75.1838 34.5765C75.3902 34.5765 75.5965 34.3692 75.8028 34.3692V36.442C75.3902 36.6493 75.1839 36.6493 74.7712 36.6493C74.3585 36.6493 74.1522 36.6493 73.7396 36.6493C73.3269 36.6493 72.7079 36.6493 72.2953 36.442C71.8826 36.2347 71.4699 36.2347 71.2636 36.0274C70.851 35.8202 70.6446 35.4056 70.4383 35.1983C70.232 34.7838 70.232 34.3692 70.232 33.7474V29.1873H68.375V26.7H70.232V24.0054H73.1205V26.9073H75.8028V29.1873Z" fill="white" fill-opacity="0.7"/>
<path d="M83.6433 38.1002C83.4373 38.722 83.2303 39.1365 83.0243 39.5511C82.818 39.9656 82.6116 40.3802 82.4053 40.5875C82.1989 40.7947 81.7863 41.002 81.3736 41.2093C80.961 41.4166 80.342 41.4165 79.723 41.4165C78.8977 41.4165 78.2787 41.2093 77.4534 41.002L77.6598 38.5147C78.0724 38.722 78.4851 38.722 79.1041 38.722C79.5167 38.722 79.7231 38.722 79.9294 38.5147C80.1357 38.5147 80.342 38.3074 80.5483 38.1002C80.7547 37.8929 80.7547 37.8929 80.961 37.6856C80.961 37.4783 81.1674 37.2711 81.1674 37.0638L81.3736 36.442L77.2471 26.7H80.342L82.8179 33.1255L84.8813 26.7H87.9763L83.6433 38.1002Z" fill="white" fill-opacity="0.7"/>
<path d="M95.1973 22.3472H98.2923V27.7364H104.069V22.3472H107.164V36.6492H104.069V30.431H98.2923V36.6492H95.1973V22.3472Z" fill="white" fill-opacity="0.7"/>
<path d="M115.623 30.6384C115.623 30.2239 115.417 29.602 115.21 29.3947C114.798 28.9802 114.385 28.7729 113.973 28.7729C113.56 28.7729 113.354 28.7729 113.147 28.9802C112.941 29.1875 112.735 29.1875 112.528 29.3947C112.322 29.602 112.116 29.8093 112.116 30.0166C112.116 30.2238 111.909 30.4311 111.909 30.6384H115.623ZM118.099 34.7839C117.686 35.4058 117.067 35.8203 116.242 36.2349C115.623 36.6494 114.798 36.6494 113.973 36.6494C113.147 36.6494 112.528 36.4421 111.909 36.2349C111.29 36.0276 110.671 35.613 110.259 35.1985C109.846 34.7839 109.433 34.1621 109.227 33.5403C109.021 32.9184 108.814 32.2966 108.814 31.4675C108.814 30.6384 109.021 30.0166 109.227 29.3947C109.433 28.7729 109.846 28.1511 110.259 27.7365C110.671 27.322 111.29 26.9074 111.909 26.7002C112.528 26.4929 113.147 26.2856 113.973 26.2856C114.591 26.2856 115.21 26.4929 115.829 26.7002C116.448 26.9074 116.861 27.322 117.274 27.7365C117.686 28.1511 117.893 28.7729 118.099 29.3947C118.305 30.0166 118.512 30.6384 118.512 31.4675V32.5039H111.703C111.909 33.1257 112.116 33.5403 112.528 33.9548C112.941 34.3694 113.354 34.3694 113.973 34.3694C114.385 34.3694 114.798 34.1621 115.21 33.9548C115.623 33.7475 115.829 33.5403 116.036 33.1257L118.099 34.7839Z" fill="white" fill-opacity="0.7"/>
<path d="M125.527 32.2966C125.321 32.2966 125.114 32.2966 124.702 32.2966C124.289 32.2966 124.083 32.2966 123.67 32.5039C123.257 32.5039 123.051 32.7112 122.845 32.9184C122.638 33.1257 122.432 33.333 122.432 33.7475C122.432 34.1621 122.638 34.3694 122.845 34.5766C123.051 34.7839 123.464 34.7839 123.876 34.7839C124.083 34.7839 124.495 34.7839 124.702 34.5766C124.908 34.5766 125.114 34.3694 125.321 34.1621C125.527 33.9548 125.733 33.7475 125.733 33.5403C125.94 33.333 125.94 33.1257 125.94 32.7112V32.2966H125.527ZM126.352 35.4057C125.94 36.0276 125.527 36.2349 124.908 36.4421C124.289 36.6494 123.876 36.8567 123.257 36.8567C122.845 36.8567 122.432 36.8567 122.019 36.6494C121.607 36.4421 121.194 36.2348 120.988 36.0276C120.575 35.8203 120.369 35.4057 120.163 34.9912C119.956 34.5766 119.956 34.1621 119.956 33.7475C119.956 33.1257 120.163 32.7112 120.163 32.2966C120.369 31.8821 120.575 31.6748 120.988 31.2602C121.4 31.053 121.813 30.8457 122.226 30.6384C122.638 30.4311 123.051 30.4311 123.67 30.4311C124.083 30.4311 124.702 30.2238 125.114 30.2238C125.527 30.2238 125.94 30.2238 126.352 30.2238C126.352 29.602 126.146 29.1875 125.733 28.9802C125.321 28.7729 124.908 28.5656 124.495 28.5656C124.083 28.5656 123.67 28.7729 123.257 28.7729C122.845 28.9802 122.432 29.1875 122.226 29.602L120.575 27.9438C121.194 27.322 121.813 27.1147 122.432 26.7002C123.257 26.4929 123.876 26.2856 124.702 26.2856C125.527 26.2856 126.352 26.4929 126.765 26.7002C127.384 26.9074 127.797 27.322 128.003 27.7365C128.416 28.1511 128.622 28.7729 128.622 29.3947C128.828 30.0166 128.828 30.6384 128.828 31.4675V36.4421H126.146V35.4057H126.352Z" fill="white" fill-opacity="0.7"/>
<path d="M130.892 21.5181H133.78V36.6492H130.892V21.5181Z" fill="white" fill-opacity="0.7"/>
<path d="M142.446 29.1873H139.763V32.5037C139.763 32.711 139.763 32.9183 139.763 33.3328C139.763 33.5401 139.763 33.7474 139.97 33.9547C139.97 34.1619 140.176 34.162 140.382 34.3692C140.589 34.3692 140.795 34.5765 141.208 34.5765C141.414 34.5765 141.62 34.5765 141.827 34.5765C142.033 34.5765 142.239 34.3692 142.446 34.3692V36.442C142.033 36.6493 141.827 36.6493 141.414 36.6493C141.001 36.6493 140.795 36.6493 140.382 36.6493C139.97 36.6493 139.351 36.6493 138.938 36.442C138.526 36.2347 138.113 36.2347 137.907 36.0274C137.494 35.8202 137.288 35.4056 137.081 35.1983C136.875 34.7838 136.875 34.3692 136.875 33.7474V29.1873H135.018V26.7H136.875V24.0054H139.763V26.9073H142.446V29.1873Z" fill="white" fill-opacity="0.7"/>
<path d="M147.398 21.5181V28.1509C147.398 27.9436 147.604 27.7364 147.81 27.5291C148.017 27.3218 148.223 27.1145 148.429 27.1145C148.636 26.9073 148.842 26.9073 149.255 26.7C149.461 26.7 149.874 26.4927 150.286 26.4927C151.112 26.4927 151.73 26.7 152.143 26.9073C152.556 27.1145 152.968 27.5291 153.175 27.9436C153.381 28.3582 153.587 28.7728 153.794 29.3946C153.794 30.0164 154 30.6382 154 31.2601V36.6492H151.112V31.8819C151.112 31.6746 151.112 31.2601 151.112 31.0528C151.112 30.8455 151.112 30.431 150.905 30.2237C150.905 30.0164 150.699 29.8091 150.493 29.6019C150.286 29.3946 150.08 29.3946 149.667 29.3946C149.255 29.3946 149.048 29.3946 148.842 29.6019C148.636 29.8091 148.429 30.0164 148.223 30.2237C148.017 30.431 148.017 30.6382 148.017 31.0528C148.017 31.2601 148.017 31.6746 148.017 31.8819V36.6492H145.128V21.5181H147.398Z" fill="white" fill-opacity="0.7"/>
<path d="M25.2533 25.6637L34.7443 1.20515C34.9506 0.790552 34.5379 0.583252 34.3316 0.583252H25.4597C25.2533 0.583252 25.047 0.790552 25.047 0.997852L20.5078 13.6417C20.5078 13.849 20.5078 13.849 20.5078 14.0563L24.428 25.6637C24.6344 26.0783 25.047 26.0783 25.2533 25.6637Z" fill="white" fill-opacity="0.7"/>
<path d="M9.36561 0.583252H0.493615C0.0810153 0.583252 -0.125385 0.997853 0.0809147 1.20515L13.6985 36.0275C13.6985 36.2348 13.9049 36.4421 14.1112 36.4421H20.7136C20.9199 36.4421 21.1263 36.2348 21.1263 36.0275L21.7452 34.5766C21.7452 34.3693 21.7452 34.3692 21.7452 34.1619L9.77831 0.583252C9.77831 0.790552 9.57201 0.583252 9.36561 0.583252Z" fill="white" fill-opacity="0.7"/>
</svg>
