<svg width="144" height="60" viewBox="0 0 144 60" fill="none" xmlns="http://www.w3.org/2000/svg">
<path d="M140.7 24.8605C139.991 24.8605 139.045 24.6215 138.572 24.3824C128.876 19.3625 117.997 16.255 107.355 16.255C105.936 16.255 104.99 16.255 103.808 16.494C105.7 19.8406 109.247 24.6215 111.612 27.251C112.085 27.9681 112.322 28.4462 112.322 29.1633C112.322 30.3585 110.903 31.5537 109.484 31.5537C108.538 31.5537 108.065 31.0757 107.119 30.1195C104.281 26.7729 100.024 20.5577 97.8958 17.2111C87.7268 19.1235 76.6114 25.0996 69.9896 30.3585C69.2801 30.8366 68.8071 31.3147 67.8611 31.3147C66.4422 31.3147 65.2598 30.1195 65.2598 28.6852C65.2598 27.9681 65.4962 27.251 66.6787 26.2948C76.8478 17.6892 92.4558 10.996 105.936 10.996C111.139 10.996 116.342 11.7131 121.308 12.9083C124.383 13.6255 128.876 15.2988 132.66 16.9721C122.727 10.757 110.193 5.25896 102.389 5.25896C100.261 5.25896 99.0778 5.97609 99.0778 7.41035C99.0778 8.12751 99.5508 9.32271 100.261 10.2789C98.6048 10.5179 96.4768 10.757 95.0578 11.235C94.3478 9.80081 93.6388 8.12751 93.6388 6.21513C93.6388 2.39044 96.2398 0 101.207 0C112.558 0 131.714 10.757 141.41 18.6454C142.592 19.6016 143.538 20.5577 143.538 21.992C143.538 23.4263 142.356 24.8605 140.7 24.8605Z" fill="white" fill-opacity="0.7"/>
<path d="M16.7796 47.8087C16.7796 47.0916 17.2524 46.6135 17.7254 46.6135C18.1984 46.6135 18.6714 47.0916 18.6714 47.8087V49.004C19.1444 47.8087 20.5634 46.6135 21.5093 46.6135C22.2188 46.6135 22.4552 47.0916 22.4552 47.5697C22.4552 48.0478 22.2187 48.5259 21.2727 48.7649C19.3808 49.243 18.435 50.4382 18.435 52.3506V58.3266C18.435 59.0438 17.962 59.5219 17.489 59.5219C17.016 59.5219 16.543 59.0438 16.543 58.3266V47.8087H16.7796Z" fill="white" fill-opacity="0.7"/>
<path d="M63.6037 47.8087C63.6037 47.0916 64.0767 46.6135 64.5497 46.6135C65.2593 46.6135 65.4957 47.0916 65.4957 47.8087V49.004C65.9687 47.8087 67.1512 46.6135 68.3337 46.6135C69.0432 46.6135 69.2798 47.0916 69.2798 47.5697C69.2798 48.0478 69.0433 48.5259 68.0973 48.7649C66.2053 49.243 65.2592 50.4382 65.2592 52.3506V58.3266C65.2592 59.0438 64.7862 59.5219 64.3132 59.5219C63.6036 59.5219 63.3672 59.0438 63.3672 58.3266V47.8087H63.6037Z" fill="white" fill-opacity="0.7"/>
<path d="M28.6036 46.8525C30.7319 46.8525 31.9143 47.5697 31.9143 48.5258C31.9143 49.0039 31.6778 49.482 31.2049 49.482C30.4954 49.482 30.0225 48.7649 28.6036 48.7649C26.2387 48.7649 25.0562 50.9163 25.0562 53.5457C25.0562 56.1752 26.4752 58.3266 28.6036 58.3266C30.259 58.3266 30.4954 57.6095 31.2049 57.6095C31.6778 57.6095 31.9143 57.8485 31.9143 58.3266C31.9143 58.8047 31.4413 59.2828 30.7319 59.5218C30.2589 59.7609 29.3129 59.9999 28.367 59.9999C24.8197 59.9999 22.6914 57.3704 22.6914 53.5457C22.9279 49.482 25.2927 46.8525 28.6036 46.8525Z" fill="white" fill-opacity="0.7"/>
<path d="M41.847 52.5896C41.847 50.9163 40.9011 48.7649 38.5362 48.7649C36.1712 48.7649 34.9888 50.6772 34.9888 52.5896H41.847ZM34.9888 54.2629C34.9888 56.4143 36.4077 58.0876 38.7726 58.0876C41.1376 58.0876 41.847 56.6533 42.5565 56.6533C43.0295 56.6533 43.5025 56.8924 43.5025 57.3705C43.5025 58.3266 41.1376 59.7609 38.7726 59.7609C36.8807 59.7609 35.6982 59.2828 34.7522 58.3266C33.5697 57.1314 33.0967 55.2191 33.0967 53.3067C33.0967 49.721 35.2252 46.8525 38.7726 46.8525C42.0836 46.8525 44.212 49.7211 44.212 53.0677C44.212 53.7848 43.9755 54.2629 43.0295 54.2629H34.9888Z" fill="white" fill-opacity="0.7"/>
<path d="M48.2325 58.8048C48.2325 59.5219 47.7595 60 47.2866 60C46.8137 60 46.3408 59.5219 46.3408 58.8048V43.745C46.3408 43.0279 46.8137 42.5498 47.2866 42.5498C47.7595 42.5498 48.2325 43.0279 48.2325 43.745V58.8048Z" fill="white" fill-opacity="0.7"/>
<path d="M56.036 58.0876C57.928 58.0876 59.347 56.4143 59.347 53.3067C59.347 50.4382 57.928 48.5258 56.036 48.5258C53.9076 48.5258 52.4886 50.4382 52.4886 53.3067C52.4886 56.1752 53.9076 58.0876 56.036 58.0876ZM56.036 59.7609C52.7251 59.7609 50.5967 57.1314 50.5967 53.3067C50.5967 49.482 52.7251 46.8525 56.036 46.8525C59.3469 46.8525 61.4753 49.482 61.4753 53.3067C61.4753 57.1314 59.1104 59.7609 56.036 59.7609Z" fill="white" fill-opacity="0.7"/>
<path d="M83.9415 47.5695C82.7595 51.6333 80.8675 58.3265 80.6315 58.8046C80.3945 59.2827 80.1585 59.5217 79.4485 59.5217C78.7395 59.5217 78.5025 59.2827 78.2665 58.8046C78.0295 58.3265 76.1376 51.1552 74.9551 47.0915C74.7186 46.3743 74.7186 45.6572 74.4821 44.9401C74.4821 45.6572 74.2457 46.3743 74.2457 47.0915C73.7727 50.9162 72.8267 56.8922 72.5902 58.5656C72.5902 59.2827 72.1172 59.5217 71.4077 59.5217C70.6983 59.5217 70.4619 59.2827 70.4619 58.5656C70.4619 58.3265 70.4619 58.0875 70.4619 57.6094C70.4619 57.6094 72.5903 44.701 72.8268 43.7448C73.0633 42.7887 73.5361 42.0715 74.4821 42.0715C75.1916 42.0715 75.9011 42.5496 76.1376 43.5058C76.3741 43.9839 78.0295 50.199 78.9755 53.7847C79.2125 54.5018 79.4485 55.2189 79.4485 55.9361C79.6855 55.2189 79.6855 54.5018 79.9215 53.7847C81.1045 49.96 82.7595 43.9839 82.9955 43.2668C83.2325 42.3106 83.7055 41.8325 84.6515 41.8325C85.3605 41.8325 86.0705 42.3106 86.3065 43.5058C86.5435 44.462 88.6715 57.3703 88.6715 57.3703C88.6715 57.8484 88.6715 58.0875 88.6715 58.3265C88.6715 59.0436 88.1985 59.2827 87.7255 59.2827C87.0165 59.2827 86.7795 59.0436 86.5435 58.3265C86.3065 56.6532 85.3605 50.9162 84.8875 47.3305C84.8875 46.6134 84.6515 45.6572 84.6515 44.9401C84.4145 45.8962 84.1785 46.8524 83.9415 47.5695Z" fill="white" fill-opacity="0.7"/>
<path d="M93.4011 47.8086C93.4011 47.0915 92.9281 46.6134 92.4551 46.6134C91.7461 46.6134 91.5091 47.0915 91.5091 47.8086V58.5656C91.5091 59.2827 91.9821 59.7608 92.4551 59.7608C93.1651 59.7608 93.4011 59.2827 93.4011 58.5656V47.8086ZM92.4551 43.0278C93.1651 43.0278 93.6381 43.5059 93.6381 44.223C93.6381 44.9401 93.1651 45.4182 92.4551 45.4182C91.7461 45.4182 91.2731 44.9401 91.2731 44.223C91.0361 43.7449 91.7461 43.0278 92.4551 43.0278Z" fill="white" fill-opacity="0.7"/>
<path d="M96.9483 44.223C96.9483 43.5059 97.4213 43.0278 97.8943 43.0278C98.6043 43.0278 98.8403 43.5059 98.8403 44.223V47.0915H99.7863C100.496 47.0915 100.732 47.3306 100.732 48.0477C100.732 48.5258 100.496 49.0039 99.7863 49.0039H99.0773V58.8047C99.0773 59.5218 98.6043 59.9999 98.1313 59.9999C97.4213 59.9999 97.1853 59.5218 97.1853 58.8047V49.0039H96.4753C95.7663 49.0039 95.5293 48.7648 95.5293 48.0477C95.5293 47.5696 95.7663 47.0915 96.4753 47.0915H97.1853V44.223H96.9483Z" fill="white" fill-opacity="0.7"/>
<path d="M103.571 44.223C103.571 43.5059 104.044 43.0278 104.517 43.0278C105.227 43.0278 105.463 43.5059 105.463 44.223V47.0915H106.173C106.882 47.0915 107.119 47.3306 107.119 48.0477C107.119 48.5258 106.882 49.0039 106.173 49.0039H105.463V58.8047C105.463 59.5218 104.99 59.9999 104.517 59.9999C103.808 59.9999 103.571 59.5218 103.571 58.8047V49.0039H102.862C102.152 49.0039 101.916 48.7648 101.916 48.0477C101.916 47.5696 102.152 47.0915 102.862 47.0915H103.571V44.223Z" fill="white" fill-opacity="0.7"/>
<path d="M4.71784 53.0677C5.66374 50.6773 6.60974 47.8088 7.08264 46.1355C7.31914 45.6574 7.31914 45.1793 7.55564 44.7012C7.55564 45.1793 7.79214 45.6574 8.02864 46.1355C8.73804 48.0478 9.68404 50.6773 10.3935 53.0677H4.71784ZM14.4138 57.8486C13.9408 56.6534 9.92054 45.4183 9.21104 43.745C8.97454 43.0279 8.50154 42.3108 7.55564 42.3108C6.84614 42.3108 6.37324 42.7888 5.90024 43.745C5.66374 44.4622 1.17044 56.6534 0.697439 57.8486C0.460939 58.3267 0.460938 58.5657 0.460938 58.8048C0.460938 59.2829 0.934039 59.7609 1.40694 59.7609C1.87994 59.7609 2.35294 59.5219 2.35294 59.0438C2.35294 58.8048 3.06244 57.1315 3.77184 54.9801H10.8665C11.5759 56.8924 12.0488 58.5657 12.2853 59.0438C12.5218 59.5219 12.7584 59.7609 13.2313 59.7609C13.7043 59.7609 14.1772 59.5219 14.1772 58.8048C14.8867 58.8048 14.6503 58.5657 14.4138 57.8486Z" fill="white" fill-opacity="0.7"/>
<path d="M124.618 58.8048C124.618 59.5219 124.146 60 123.673 60C123.2 60 122.727 59.5219 122.727 58.8048V43.745C122.727 43.0279 123.2 42.5498 123.673 42.5498C124.146 42.5498 124.618 43.0279 124.618 43.745V58.8048Z" fill="white" fill-opacity="0.7"/>
<path d="M113.975 58.0876C111.847 58.0876 110.428 56.4143 110.428 53.3067C110.428 50.4382 111.847 48.5258 113.975 48.5258C116.104 48.5258 117.523 50.4382 117.523 53.3067C117.523 56.1752 116.104 58.0876 113.975 58.0876ZM118.469 46.8525C117.759 46.8525 117.523 47.3306 117.523 48.0477V49.0039C116.813 47.8087 115.394 46.8525 113.975 46.8525C110.901 46.8525 108.536 49.482 108.536 53.3067C108.536 57.1314 110.665 59.9999 113.975 59.9999C115.631 59.9999 116.813 59.2828 117.523 57.8485V58.8047C117.523 59.5218 117.996 59.9999 118.469 59.9999C119.178 59.9999 119.415 59.5218 119.415 58.8047V47.8087C119.651 47.0916 119.178 46.8525 118.469 46.8525Z" fill="white" fill-opacity="0.7"/>
</svg>
