<svg width="127" height="127" viewBox="0 0 127 127" fill="none" xmlns="http://www.w3.org/2000/svg">
<path fill-rule="evenodd" clip-rule="evenodd" d="M21.1667 21.1667C21.1667 15.3217 25.905 10.5834 31.7501 10.5834H95.2501C101.095 10.5834 105.833 15.3217 105.833 21.1667V43.2414L100.088 37.4959L85.5356 52.048L75.4063 41.9186L37.0417 80.2832L25.5505 68.7918L41.8794 52.463L26.9123 37.4959L21.1667 43.2414V21.1667ZM21.1667 94.3423V105.833C21.1667 111.678 25.905 116.417 31.7501 116.417H95.2501C101.095 116.417 105.833 111.678 105.833 105.833V94.3423L100.088 100.088L85.1206 85.1209L101.45 68.7918L89.9584 57.3007L50.9324 96.3268L40.8029 86.1973L26.9123 100.088L21.1667 94.3423ZM34.3959 19.8438C34.3959 22.0357 32.6191 23.8125 30.4272 23.8125C28.2352 23.8125 26.4584 22.0357 26.4584 19.8438C26.4584 17.6519 28.2352 15.875 30.4272 15.875C32.6191 15.875 34.3959 17.6519 34.3959 19.8438ZM41.0105 23.8125C43.2024 23.8125 44.9792 22.0357 44.9792 19.8438C44.9792 17.6519 43.2024 15.875 41.0105 15.875C38.8186 15.875 37.0417 17.6519 37.0417 19.8438C37.0417 22.0357 38.8186 23.8125 41.0105 23.8125ZM55.5626 19.8438C55.5626 22.0357 53.7858 23.8125 51.5938 23.8125C49.4019 23.8125 47.6251 22.0357 47.6251 19.8438C47.6251 17.6519 49.4019 15.875 51.5938 15.875C53.7858 15.875 55.5626 17.6519 55.5626 19.8438Z" fill="white"/>
<path d="M30.427 48.9479L10.5833 68.7916L30.427 88.6354" stroke="white" stroke-width="8"/>
<path d="M96.573 48.9479L116.417 68.7916L96.573 88.6354" stroke="white" stroke-width="8"/>
<path d="M79.375 52.9166L47.625 84.6666" stroke="white" stroke-width="8"/>
</svg>
