<svg width="122" height="108" viewBox="0 0 122 108" fill="none" xmlns="http://www.w3.org/2000/svg">
<path d="M24.9722 54.0308C29.653 51.2611 35.0829 49.7058 40.6532 49.5V60.776C36.6942 61.0234 33.0926 62.4175 30.2693 64.5856L21.2661 56.6119C22.4185 55.673 23.6567 54.8093 24.9722 54.0308Z" fill="white"/>
<path d="M43.1958 49.5V60.776C47.1548 61.0234 50.7564 62.4175 53.5795 64.5855L62.5829 56.6119C57.717 52.6474 51.5181 50.1826 44.9152 49.6068C44.3421 49.5567 43.7687 49.5211 43.1958 49.5Z" fill="white"/>
<path d="M58.5549 82.1298H41.9243V70.8701H72.4375V77.626L72.4055 77.7394C72.1044 83.5491 69.6932 89.1307 65.5114 93.6434C65.146 94.0378 64.7689 94.4219 64.3807 94.7956L55.3775 86.8221C56.7247 85.4461 57.8073 83.8613 58.5549 82.1298Z" fill="white"/>
<path d="M53.5795 88.4146C50.7564 90.5825 47.1548 91.9766 43.1958 92.224V103.5C44.7603 103.442 46.3255 103.278 47.8773 103.004C53.3986 102.032 58.4799 99.7309 62.5829 96.3881L53.5795 88.4146Z" fill="white"/>
<path d="M40.6532 92.224C36.6942 91.9766 33.0926 90.5825 30.2693 88.4144L21.2661 96.388C23.1485 97.9217 25.2537 99.25 27.5407 100.333C31.6143 102.261 36.0995 103.332 40.6532 103.5V92.224Z" fill="white"/>
<path d="M28.4711 86.8221C26.0231 84.3218 24.449 81.1322 24.1696 77.626H11.4375C11.5856 80.7702 12.3537 83.8908 13.7337 86.8414C15.1137 89.7919 17.0621 92.4795 19.4679 94.7956L28.4711 86.8221Z" fill="white"/>
<path d="M24.1696 75.374C24.4491 71.8678 26.0231 68.6782 28.4711 66.1779L19.4679 58.2043C16.3823 61.1749 14.0657 64.7409 12.7249 68.6555C11.9722 70.8532 11.544 73.1108 11.4375 75.374H24.1696Z" fill="white"/>
<path d="M67.354 31.0448V4.5L90.2446 22.5074V32.6656C90.2446 32.6656 90.2445 32.6656 90.2446 32.6656V45.0863C88.3871 45.2913 86.685 45.9395 85.2778 46.9075L67.354 31.0448Z" fill="white"/>
<path d="M67.354 34.2281V52.8949H81.4214C81.653 51.2509 82.3855 49.7445 83.4794 48.4992L67.354 34.2281Z" fill="white"/>
<path d="M81.4216 55.1458H67.3872C67.6834 60.203 69.9652 64.7954 73.5556 68.3242L83.4796 59.5415C82.3858 58.2961 81.6533 56.7897 81.4216 55.1458Z" fill="white"/>
<path d="M85.2781 61.1332L75.354 69.9159C79.3414 73.0935 84.5306 75.1128 90.2449 75.375V62.9543C88.3873 62.7494 86.6853 62.1012 85.2781 61.1332Z" fill="white"/>
<path d="M92.7881 62.9543V75.375C98.5024 75.1128 103.692 73.0935 107.679 69.9159L97.7549 61.1331C96.3477 62.1011 94.6457 62.7493 92.7881 62.9543Z" fill="white"/>
<path d="M99.5532 59.5414L109.477 68.3242C113.068 64.7953 115.349 60.203 115.646 55.1458H101.611C101.38 56.7897 100.647 58.296 99.5532 59.5414Z" fill="white"/>
<path d="M101.611 52.8949H115.646C115.349 47.8376 113.068 43.2452 109.477 39.7164L99.5532 48.4993C100.647 49.7446 101.38 51.2509 101.611 52.8949Z" fill="white"/>
<path d="M97.7549 46.9077L107.679 38.1248C103.692 34.9473 98.5024 32.928 92.7881 32.6656V45.0863C94.6457 45.2913 96.3477 45.9395 97.7549 46.9077Z" fill="white"/>
</svg>
