<svg width="115" height="115" viewBox="0 0 115 115" fill="none" xmlns="http://www.w3.org/2000/svg">
<path fill-rule="evenodd" clip-rule="evenodd" d="M19.1667 19.1667C19.1667 13.874 23.4573 9.58337 28.7501 9.58337H86.2501C91.5428 9.58337 95.8334 13.874 95.8334 19.1667V95.8334C95.8334 101.126 91.5428 105.417 86.2501 105.417H28.7501C23.4573 105.417 19.1667 101.126 19.1667 95.8334V19.1667ZM31.1459 17.9688C31.1459 19.9536 29.537 21.5625 27.5522 21.5625C25.5673 21.5625 23.9584 19.9536 23.9584 17.9688C23.9584 15.984 25.5673 14.375 27.5522 14.375C29.537 14.375 31.1459 15.984 31.1459 17.9688ZM37.1355 21.5625C39.1203 21.5625 40.7292 19.9536 40.7292 17.9688C40.7292 15.984 39.1203 14.375 37.1355 14.375C35.1507 14.375 33.5417 15.984 33.5417 17.9688C33.5417 19.9536 35.1507 21.5625 37.1355 21.5625ZM50.3126 17.9688C50.3126 19.9536 48.7037 21.5625 46.7188 21.5625C44.734 21.5625 43.1251 19.9536 43.1251 17.9688C43.1251 15.984 44.734 14.375 46.7188 14.375C48.7037 14.375 50.3126 15.984 50.3126 17.9688ZM53.7675 26.1309C59.1265 22.2373 64.1144 18.6133 62.2917 14.375C67.4067 21.3838 62.4233 26.0886 57.3182 30.908C52.8588 35.118 48.3064 39.4156 50.3126 45.4131C52.1217 50.8215 56.285 56.1571 56.285 56.1571C56.285 56.1571 43.0027 50.1882 43.0027 39.0556C43.0027 33.9522 48.5603 29.9143 53.7675 26.1309ZM56.285 40.638C56.285 29.8941 75.4688 27.5065 75.4688 27.5065C75.4688 27.5065 63.4897 34.6692 63.4897 39.4442C63.4897 41.4768 64.5749 43.3571 65.6367 45.1968C67.0694 47.6793 68.4595 50.0879 67.0834 52.6971C64.6876 57.2399 58.6504 58.5821 58.6504 58.5821C58.6504 58.5821 62.4235 55.9108 62.2917 52.6971C62.2232 50.9533 61.0394 49.5605 59.7408 48.0322C58.1042 46.1065 56.285 43.966 56.285 40.638ZM74.2709 57.3509C76.2145 55.9193 78.3169 54.874 80.2605 54.9633C85.0522 54.9633 87.448 57.3509 87.448 62.1259C87.448 70.4823 73.073 74.0636 73.073 74.0636C73.073 74.0636 81.4584 68.3516 81.4584 62.1259C81.4584 59.3487 78.1054 56.5011 74.2709 57.3509ZM29.948 59.7383C29.948 56.0453 39.5463 53.9348 44.323 53.7695L46.7188 54.9633C46.7188 54.9633 38.2789 55.0383 39.504 58.5821C40.7292 62.1259 63.4897 59.7384 73.073 58.5821C71.9398 59.6931 68.2813 62.1259 68.2813 62.1259C52.3996 65.29 29.948 65.7072 29.948 59.7383ZM35.9376 68.0948C35.9376 66.1078 40.5128 64.5135 43.1251 64.5135C38.3334 69.2886 56.3022 69.8854 65.8855 66.9011L70.6772 70.4823C56.1626 76.3211 35.9376 74.0636 35.9376 68.0948ZM39.5313 77.6449C39.5313 75.9786 41.9565 74.0636 45.5209 74.0636C43.1251 77.6449 58.099 77.6449 64.6876 74.0636L69.4792 77.6449C59.8959 83.6138 39.5313 83.6138 39.5313 77.6449ZM23.9584 83.6138C23.9584 80.0325 29.948 78.8388 33.5316 78.8388C34.428 78.8456 37.1355 78.8388 37.1355 78.8388L38.3334 80.0325C35.9376 80.0325 32.3438 80.8727 32.3438 82.4201C32.3438 90.8433 85.0522 88.3889 80.2605 78.8388C80.4215 78.9259 80.6979 79.038 81.0393 79.1765C82.4725 79.7581 85.0522 80.8046 85.0522 82.4201C85.0522 94.4977 23.9584 96.7454 23.9584 83.6138ZM89.8438 86.0014C79.0626 94.3578 53.9063 97.3423 34.7397 93.1641C57.5001 103.311 89.7286 96.8094 89.8438 86.0014Z" fill="white"/>
</svg>
