<svg width="165" height="29" viewBox="0 0 165 29" fill="none" xmlns="http://www.w3.org/2000/svg">
<path d="M26.3385 0.317072V29H21.0117V16.7073H6.17854V29H0.851707V0.317072H6.17854V12.159H21.0117V0.317072H26.3385ZM55.5365 24.5337V29H34.0243V0.317072H54.9629V4.78341H39.3512V12.241H53.2009V16.6254H39.3512V24.5337H55.5365ZM80.0777 22.362H65.7363L62.9089 29H57.4182L70.3255 0.317072H75.5704L88.5187 29H82.946L80.0777 22.362ZM78.3158 18.1824L72.907 5.6439L67.5392 18.1824H78.3158ZM92.1665 0.317072H97.4933V24.4927H112.49V29H92.1665V0.317072ZM119.833 4.82439H110.327V0.317072H134.667V4.82439H125.16V29H119.833V4.82439ZM164.151 0.317072V29H158.824V16.7073H143.991V29H138.664V0.317072H143.991V12.159H158.824V0.317072H164.151Z" fill="url(#paint0_linear_964_193)"/>
<defs>
<linearGradient id="paint0_linear_964_193" x1="82.5" y1="-11" x2="82.5" y2="39" gradientUnits="userSpaceOnUse">
<stop stop-color="#FFB800"/>
<stop offset="1" stop-color="#FE823A"/>
</linearGradient>
</defs>
</svg>
