<svg width="96" height="32" viewBox="0 0 96 32" fill="none" xmlns="http://www.w3.org/2000/svg">
<path fill-rule="evenodd" clip-rule="evenodd" d="M26.9578 0V22.3197L20.9287 13.7808V0H26.9578ZM0 31.7693V9.439L6.02558 17.9743V31.7693H0ZM20.8301 21.589V21.6031L5.58081 0H0V1.4861L10.8439 16.8519L21.3737 31.7693H26.958V30.2691L20.8301 21.589ZM71.1945 13.7666H77.3543V31.7692H71.1945V13.7666ZM40.1427 13.7666H33.983V31.7692H40.1427V19.1356H55.7202V13.7771H40.1427V13.7666ZM57.3722 5.3161H40.1427V9.1602H33.983V4.3665V0H57.3722V5.3161ZM87.0308 0H61.2871V5.3161H71.1956V9.1602H77.3553V5.3161H87.0308V0ZM88.1213 13.7666H96.0001V19.0826H88.1213V13.7666Z" fill="url(#paint0_linear_957_1750)"/>
<defs>
<linearGradient id="paint0_linear_957_1750" x1="48" y1="0" x2="48" y2="31.7693" gradientUnits="userSpaceOnUse">
<stop stop-color="#FFB800"/>
<stop offset="1" stop-color="#FE823A"/>
</linearGradient>
</defs>
</svg>
