<svg width="166" height="19" viewBox="0 0 166 19" fill="none" xmlns="http://www.w3.org/2000/svg">
<path d="M11.5711 18L8.05541 12.96C7.9079 12.9764 7.68663 12.9846 7.39161 12.9846H3.50712V18H0.311024V0.790243H7.39161C8.88312 0.790243 10.178 1.0361 11.2761 1.5278C12.3906 2.01951 13.2429 2.72429 13.833 3.64215C14.423 4.56 14.718 5.64995 14.718 6.912C14.718 8.20683 14.3984 9.32137 13.7592 10.2556C13.1364 11.1899 12.2349 11.8864 11.0548 12.3454L15.0131 18H11.5711ZM11.4974 6.912C11.4974 5.81385 11.1368 4.96976 10.4156 4.37971C9.69444 3.78966 8.63727 3.49463 7.2441 3.49463H3.50712V10.354H7.2441C8.63727 10.354 9.69444 10.0589 10.4156 9.46888C11.1368 8.86244 11.4974 8.01015 11.4974 6.912ZM31.2012 15.3202V18H18.2939V0.790243H30.857V3.47005H21.49V7.94459H29.7998V10.5752H21.49V15.3202H31.2012ZM45.9259 14.0172H37.321L35.6246 18H32.3302L40.0746 0.790243H43.2215L50.9905 18H47.6469L45.9259 14.0172ZM44.8687 11.5095L41.6235 3.98634L38.4028 11.5095H44.8687ZM53.1792 0.790243H56.3753V15.2956H65.3735V18H53.1792V0.790243ZM87.5987 15.3202V18H74.6914V0.790243H87.2545V3.47005H77.8875V7.94459H86.1973V10.5752H77.8875V15.3202H87.5987ZM96.4967 18.2459C95.169 18.2459 93.8824 18.0574 92.6368 17.6804C91.4075 17.3034 90.4323 16.8035 89.7111 16.1807L90.8174 13.6976C91.5222 14.2548 92.3827 14.7138 93.3989 15.0743C94.4315 15.4185 95.4641 15.5906 96.4967 15.5906C97.7751 15.5906 98.7257 15.3858 99.3486 14.976C99.9878 14.5662 100.307 14.0254 100.307 13.3534C100.307 12.8617 100.127 12.4601 99.7665 12.1487C99.4223 11.8209 98.9798 11.5668 98.4389 11.3865C97.898 11.2062 97.1605 11.0014 96.2262 10.7719C94.915 10.4605 93.8496 10.1491 93.0301 9.83766C92.227 9.52624 91.5304 9.04273 90.9404 8.38712C90.3667 7.71512 90.0799 6.81366 90.0799 5.68273C90.0799 4.7321 90.3339 3.87161 90.842 3.10127C91.3665 2.31454 92.145 1.69171 93.1776 1.23278C94.2266 0.773853 95.505 0.54439 97.013 0.54439C98.0619 0.54439 99.0945 0.675512 100.111 0.937756C101.127 1.2 102.004 1.57698 102.741 2.06868L101.733 4.5518C100.979 4.10927 100.193 3.77327 99.3731 3.54381C98.5536 3.31434 97.7587 3.19961 96.9884 3.19961C95.7263 3.19961 94.7839 3.41268 94.161 3.83883C93.5546 4.26498 93.2514 4.83044 93.2514 5.53522C93.2514 6.02693 93.4235 6.42849 93.7677 6.7399C94.1283 7.05132 94.579 7.29717 95.1199 7.47746C95.6608 7.65776 96.3983 7.86263 97.3326 8.0921C98.611 8.38712 99.66 8.69854 100.479 9.02634C101.299 9.33776 101.996 9.82127 102.569 10.4769C103.159 11.1325 103.454 12.0176 103.454 13.1321C103.454 14.0827 103.192 14.9432 102.668 15.7136C102.159 16.4839 101.381 17.0985 100.332 17.5575C99.283 18.0164 98.0046 18.2459 96.4967 18.2459ZM109.875 3.49463H104.171V0.790243H118.774V3.49463H113.071V18H109.875V3.49463ZM131.47 14.0172H122.866L121.169 18H117.875L125.619 0.790243H128.766L136.535 18H133.191L131.47 14.0172ZM130.413 11.5095L127.168 3.98634L123.947 11.5095H130.413ZM141.351 3.49463H135.647V0.790243H150.25V3.49463H144.547V18H141.351V3.49463ZM165.556 15.3202V18H152.649V0.790243H165.212V3.47005H155.845V7.94459H164.155V10.5752H155.845V15.3202H165.556Z" fill="url(#paint0_linear_964_193)"/>
<defs>
<linearGradient id="paint0_linear_964_193" x1="82.5" y1="-6" x2="82.5" y2="24" gradientUnits="userSpaceOnUse">
<stop stop-color="#FFB800"/>
<stop offset="1" stop-color="#FE823A"/>
</linearGradient>
</defs>
</svg>
