<svg width="114" height="18" viewBox="0 0 114 18" fill="none" xmlns="http://www.w3.org/2000/svg">
<path d="M5.80215 3.49463H0.0983415V0.790243H14.702V3.49463H8.99824V18H5.80215V3.49463ZM28.3608 18L24.845 12.96C24.6975 12.9764 24.4763 12.9846 24.1812 12.9846H20.2968V18H17.1007V0.790243H24.1812C25.6728 0.790243 26.9676 1.0361 28.0657 1.5278C29.1803 2.01951 30.0326 2.72429 30.6226 3.64215C31.2127 4.56 31.5077 5.64995 31.5077 6.912C31.5077 8.20683 31.1881 9.32137 30.5489 10.2556C29.926 11.1899 29.0246 11.8864 27.8445 12.3454L31.8027 18H28.3608ZM28.287 6.912C28.287 5.81385 27.9264 4.96976 27.2052 4.37971C26.4841 3.78966 25.4269 3.49463 24.0337 3.49463H20.2968V10.354H24.0337C25.4269 10.354 26.4841 10.0589 27.2052 9.46888C27.9264 8.86244 28.287 8.01015 28.287 6.912ZM46.2453 14.0172H37.6404L35.944 18H32.6496L40.3939 0.790243H43.5409L51.3098 18H47.9662L46.2453 14.0172ZM45.1881 11.5095L41.9428 3.98634L38.7221 11.5095H45.1881ZM68.3208 0.790243L60.8223 18H57.6753L50.1522 0.790243H53.6188L59.3472 14.0663L65.1247 0.790243H68.3208ZM83.0442 15.3202V18H70.1369V0.790243H82.7V3.47005H73.333V7.94459H81.6428V10.5752H73.333V15.3202H83.0442ZM86.6071 0.790243H89.8032V15.2956H98.8015V18H86.6071V0.790243ZM101.325 0.790243H104.521V15.2956H113.519V18H101.325V0.790243Z" fill="url(#paint0_linear_964_193)"/>
<defs>
<linearGradient id="paint0_linear_964_193" x1="57" y1="-6" x2="57" y2="24" gradientUnits="userSpaceOnUse">
<stop stop-color="#FFB800"/>
<stop offset="1" stop-color="#FE823A"/>
</linearGradient>
</defs>
</svg>
