<svg width="151" height="19" viewBox="0 0 151 19" fill="none" xmlns="http://www.w3.org/2000/svg">
<path d="M13.2183 15.3202V18H0.311024V0.790243H12.8741V3.47005H3.50712V7.94459H11.817V10.5752H3.50712V15.3202H13.2183ZM16.7813 0.790243H24.3044C26.1401 0.790243 27.771 1.15083 29.1969 1.872C30.6229 2.57678 31.7292 3.58478 32.5159 4.896C33.3027 6.19083 33.696 7.69054 33.696 9.39512C33.696 11.0997 33.3027 12.6076 32.5159 13.9188C31.7292 15.2137 30.6229 16.2217 29.1969 16.9428C27.771 17.6476 26.1401 18 24.3044 18H16.7813V0.790243ZM24.1569 15.2956C25.419 15.2956 26.5253 15.058 27.4759 14.5826C28.443 14.0909 29.1805 13.4025 29.6886 12.5175C30.2131 11.616 30.4753 10.5752 30.4753 9.39512C30.4753 8.21502 30.2131 7.18244 29.6886 6.29737C29.1805 5.3959 28.443 4.70751 27.4759 4.2322C26.5253 3.74049 25.419 3.49463 24.1569 3.49463H19.9774V15.2956H24.1569ZM44.4932 18.2459C42.1166 18.2459 40.2645 17.582 38.9369 16.2544C37.6093 14.9104 36.9455 12.9928 36.9455 10.5015V0.790243H40.1416V10.3785C40.1416 13.7549 41.6004 15.4431 44.5178 15.4431C47.4189 15.4431 48.8694 13.7549 48.8694 10.3785V0.790243H52.0164V10.5015C52.0164 12.9928 51.3525 14.9104 50.0249 16.2544C48.7137 17.582 46.8698 18.2459 44.4932 18.2459ZM64.4581 18.2459C62.7207 18.2459 61.1473 17.8689 59.7377 17.1149C58.3445 16.3446 57.2464 15.2874 56.4433 13.9434C55.6565 12.5994 55.2632 11.0833 55.2632 9.39512C55.2632 7.70693 55.6647 6.19083 56.4678 4.84683C57.271 3.50283 58.3691 2.45385 59.7623 1.6999C61.1718 0.92956 62.7453 0.54439 64.4827 0.54439C65.8922 0.54439 67.1789 0.790244 68.3426 1.28195C69.5063 1.77366 70.4897 2.48663 71.2928 3.42088L69.2276 5.36312C67.982 4.01912 66.4495 3.34712 64.6302 3.34712C63.4501 3.34712 62.3929 3.60937 61.4587 4.13385C60.5244 4.64195 59.7951 5.35493 59.2706 6.27278C58.7461 7.19063 58.4838 8.23141 58.4838 9.39512C58.4838 10.5588 58.7461 11.5996 59.2706 12.5175C59.7951 13.4353 60.5244 14.1565 61.4587 14.681C62.3929 15.1891 63.4501 15.4431 64.6302 15.4431C66.4495 15.4431 67.982 14.7629 69.2276 13.4025L71.2928 15.3694C70.4897 16.3036 69.4981 17.0166 68.318 17.5083C67.1543 18 65.8676 18.2459 64.4581 18.2459ZM85.1568 14.0172H76.552L74.8556 18H71.5611L79.3055 0.790243H82.4525L90.2214 18H86.8778L85.1568 14.0172ZM84.0997 11.5095L80.8544 3.98634L77.6337 11.5095H84.0997ZM95.0369 3.49463H89.3331V0.790243H103.937V3.49463H98.233V18H95.0369V3.49463ZM106.335 0.790243H109.532V18H106.335V0.790243ZM122.226 18.2459C120.472 18.2459 118.89 17.8689 117.481 17.1149C116.071 16.3446 114.965 15.2874 114.162 13.9434C113.359 12.583 112.957 11.0669 112.957 9.39512C112.957 7.72332 113.359 6.21541 114.162 4.87141C114.965 3.51102 116.071 2.45385 117.481 1.6999C118.89 0.92956 120.472 0.54439 122.226 0.54439C123.98 0.54439 125.561 0.92956 126.971 1.6999C128.38 2.45385 129.487 3.50283 130.29 4.84683C131.093 6.19083 131.494 7.70693 131.494 9.39512C131.494 11.0833 131.093 12.5994 130.29 13.9434C129.487 15.2874 128.38 16.3446 126.971 17.1149C125.561 17.8689 123.98 18.2459 122.226 18.2459ZM122.226 15.4431C123.373 15.4431 124.406 15.1891 125.324 14.681C126.241 14.1565 126.963 13.4353 127.487 12.5175C128.012 11.5832 128.274 10.5424 128.274 9.39512C128.274 8.2478 128.012 7.21522 127.487 6.29737C126.963 5.36312 126.241 4.64195 125.324 4.13385C124.406 3.60937 123.373 3.34712 122.226 3.34712C121.078 3.34712 120.046 3.60937 119.128 4.13385C118.21 4.64195 117.489 5.36312 116.965 6.29737C116.44 7.21522 116.178 8.2478 116.178 9.39512C116.178 10.5424 116.44 11.5832 116.965 12.5175C117.489 13.4353 118.21 14.1565 119.128 14.681C120.046 15.1891 121.078 15.4431 122.226 15.4431ZM150.174 0.790243V18H147.544L138.054 6.34654V18H134.882V0.790243H137.513L147.003 12.4437V0.790243H150.174Z" fill="url(#paint0_linear_964_193)"/>
<defs>
<linearGradient id="paint0_linear_964_193" x1="75.5" y1="-6" x2="75.5" y2="24" gradientUnits="userSpaceOnUse">
<stop stop-color="#FFB800"/>
<stop offset="1" stop-color="#FE823A"/>
</linearGradient>
</defs>
</svg>
