<svg width="145" height="24" viewBox="0 0 145 24" fill="none" xmlns="http://www.w3.org/2000/svg">
<path d="M14.4728 15.0172H5.8679L4.17151 19H0.877073L8.62146 1.79024H11.7684L19.5374 19H16.1938L14.4728 15.0172ZM13.4156 12.5095L10.1703 4.98634L6.94966 12.5095H13.4156ZM34.3412 5.87141V17.0086C34.3412 21.6306 31.981 23.9417 27.2606 23.9417C25.9986 23.9417 24.8021 23.7778 23.6712 23.45C22.5402 23.1385 21.606 22.6796 20.8684 22.0732L22.2452 19.7621C22.8189 20.2375 23.54 20.6144 24.4087 20.8931C25.2938 21.1881 26.1871 21.3356 27.0885 21.3356C28.5309 21.3356 29.588 21.0078 30.26 20.3522C30.932 19.6966 31.268 18.6968 31.268 17.3528V16.6644C30.7436 17.238 30.1043 17.6724 29.3504 17.9674C28.5964 18.2624 27.7687 18.41 26.8673 18.41C25.6216 18.41 24.4907 18.1477 23.4745 17.6232C22.4747 17.0823 21.6798 16.3284 21.0897 15.3614C20.516 14.3943 20.2292 13.288 20.2292 12.0423C20.2292 10.7967 20.516 9.69854 21.0897 8.7479C21.6798 7.78088 22.4747 7.03512 23.4745 6.51063C24.4907 5.98615 25.6216 5.7239 26.8673 5.7239C27.8179 5.7239 28.6784 5.87961 29.4487 6.19102C30.2355 6.50244 30.8911 6.97776 31.4156 7.61698V5.87141H34.3412ZM27.3344 15.8039C28.4981 15.8039 29.4487 15.4597 30.1863 14.7713C30.9402 14.0665 31.3172 13.1569 31.3172 12.0423C31.3172 10.9442 30.9402 10.0509 30.1863 9.36254C29.4487 8.67415 28.4981 8.32995 27.3344 8.32995C26.1543 8.32995 25.1873 8.67415 24.4333 9.36254C23.6958 10.0509 23.327 10.9442 23.327 12.0423C23.327 13.1569 23.6958 14.0665 24.4333 14.7713C25.1873 15.4597 26.1543 15.8039 27.3344 15.8039ZM41.3071 7.78907C42.1922 6.41229 43.7493 5.7239 45.9783 5.7239V8.64956C45.7161 8.60039 45.4784 8.5758 45.2654 8.5758C44.0689 8.5758 43.1346 8.92819 42.4626 9.63298C41.7906 10.3214 41.4546 11.3212 41.4546 12.6324V19H38.3815V5.87141H41.3071V7.78907ZM48.5854 5.87141H51.6585V19H48.5854V5.87141ZM50.1342 3.7079C49.577 3.7079 49.1098 3.5358 48.7329 3.19161C48.3559 2.83102 48.1674 2.38849 48.1674 1.864C48.1674 1.33951 48.3559 0.90517 48.7329 0.560975C49.1098 0.20039 49.577 0.0200976 50.1342 0.0200976C50.6915 0.0200976 51.1586 0.192195 51.5356 0.53639C51.9126 0.864195 52.1011 1.28215 52.1011 1.79024C52.1011 2.33112 51.9126 2.79005 51.5356 3.16702C51.175 3.52761 50.7079 3.7079 50.1342 3.7079ZM61.7155 19.1721C60.3551 19.1721 59.134 18.8853 58.0523 18.3116C56.9705 17.738 56.1264 16.943 55.52 15.9268C54.9135 14.8942 54.6103 13.7305 54.6103 12.4357C54.6103 11.1409 54.9135 9.98537 55.52 8.96917C56.1264 7.95298 56.9623 7.15805 58.0277 6.58439C59.1094 6.01073 60.3387 5.7239 61.7155 5.7239C63.0103 5.7239 64.1412 5.98615 65.1083 6.51063C66.0917 7.03512 66.8292 7.78907 67.3209 8.77249L64.9608 10.1493C64.5838 9.54283 64.1085 9.0921 63.5348 8.79707C62.9775 8.48566 62.3629 8.32995 61.6909 8.32995C60.5436 8.32995 59.5929 8.70693 58.839 9.46088C58.085 10.1984 57.7081 11.19 57.7081 12.4357C57.7081 13.6814 58.0768 14.6812 58.8144 15.4351C59.5684 16.1727 60.5272 16.5415 61.6909 16.5415C62.3629 16.5415 62.9775 16.394 63.5348 16.0989C64.1085 15.7875 64.5838 15.3286 64.9608 14.7221L67.3209 16.0989C66.8128 17.0823 66.0671 17.8445 65.0837 18.3854C64.1167 18.9099 62.9939 19.1721 61.7155 19.1721ZM82.6881 5.87141V19H79.7625V17.3282C79.2708 17.9182 78.6561 18.3772 77.9186 18.705C77.181 19.0164 76.3861 19.1721 75.5338 19.1721C73.78 19.1721 72.3951 18.6886 71.3789 17.7216C70.3791 16.7381 69.8792 15.2876 69.8792 13.37V5.87141H72.9523V12.952C72.9523 14.1321 73.2146 15.0172 73.7391 15.6072C74.2799 16.1809 75.0421 16.4677 76.0255 16.4677C77.1237 16.4677 77.9923 16.1317 78.6316 15.4597C79.2872 14.7713 79.615 13.7879 79.615 12.5095V5.87141H82.6881ZM86.7119 0.757658H89.7851V19H86.7119V0.757658ZM102.359 18.287C101.998 18.582 101.556 18.8033 101.031 18.9508C100.523 19.0983 99.9822 19.1721 99.4085 19.1721C97.9662 19.1721 96.8516 18.7951 96.0649 18.0412C95.2782 17.2872 94.8848 16.1891 94.8848 14.7467V8.42829H92.7213V5.96976H94.8848V2.97034H97.958V5.96976H101.474V8.42829H97.958V14.673C97.958 15.3122 98.1137 15.8039 98.4251 16.1481C98.7365 16.4759 99.1872 16.6398 99.7773 16.6398C100.466 16.6398 101.039 16.4595 101.498 16.0989L102.359 18.287ZM117.597 5.87141V19H114.672V17.3282C114.18 17.9182 113.565 18.3772 112.828 18.705C112.09 19.0164 111.295 19.1721 110.443 19.1721C108.689 19.1721 107.304 18.6886 106.288 17.7216C105.288 16.7381 104.788 15.2876 104.788 13.37V5.87141H107.862V12.952C107.862 14.1321 108.124 15.0172 108.648 15.6072C109.189 16.1809 109.951 16.4677 110.935 16.4677C112.033 16.4677 112.902 16.1317 113.541 15.4597C114.196 14.7713 114.524 13.7879 114.524 12.5095V5.87141H117.597ZM124.547 7.78907C125.432 6.41229 126.989 5.7239 129.218 5.7239V8.64956C128.956 8.60039 128.718 8.5758 128.505 8.5758C127.309 8.5758 126.374 8.92819 125.702 9.63298C125.03 10.3214 124.694 11.3212 124.694 12.6324V19H121.621V5.87141H124.547V7.78907ZM144.047 12.5095C144.047 12.7225 144.03 13.0258 143.998 13.4191H133.696C133.877 14.3861 134.344 15.1565 135.098 15.7301C135.868 16.2874 136.819 16.566 137.95 16.566C139.392 16.566 140.58 16.0907 141.515 15.1401L143.162 17.0332C142.572 17.738 141.826 18.2706 140.925 18.6312C140.023 18.9918 139.007 19.1721 137.876 19.1721C136.434 19.1721 135.163 18.8853 134.065 18.3116C132.967 17.738 132.115 16.943 131.508 15.9268C130.918 14.8942 130.623 13.7305 130.623 12.4357C130.623 11.1573 130.91 10.01 131.484 8.99376C132.074 7.96117 132.885 7.15805 133.918 6.58439C134.95 6.01073 136.114 5.7239 137.409 5.7239C138.687 5.7239 139.826 6.01073 140.826 6.58439C141.842 7.14166 142.629 7.93659 143.186 8.96917C143.76 9.98537 144.047 11.1655 144.047 12.5095ZM137.409 8.18244C136.425 8.18244 135.59 8.47746 134.901 9.06751C134.229 9.64117 133.819 10.4115 133.672 11.3785H141.121C140.99 10.4279 140.589 9.65756 139.917 9.06751C139.245 8.47746 138.409 8.18244 137.409 8.18244Z" fill="url(#paint0_linear_964_193)"/>
<defs>
<linearGradient id="paint0_linear_964_193" x1="73" y1="-5" x2="73" y2="25" gradientUnits="userSpaceOnUse">
<stop stop-color="#FFB800"/>
<stop offset="1" stop-color="#FE823A"/>
</linearGradient>
</defs>
</svg>
