<svg width="150" height="19" viewBox="0 0 150 19" fill="none" xmlns="http://www.w3.org/2000/svg">
<path d="M0.311024 0.790243H3.50712V18H0.311024V0.790243ZM23.4541 0.790243V18H20.8235L11.3335 6.34654V18H8.16202V0.790243H10.7926L20.2826 12.4437V0.790243H23.4541ZM33.4006 18.2459C32.073 18.2459 30.7864 18.0574 29.5407 17.6804C28.3115 17.3034 27.3362 16.8035 26.6151 16.1807L27.7214 13.6976C28.4262 14.2548 29.2867 14.7138 30.3029 15.0743C31.3355 15.4185 32.368 15.5906 33.4006 15.5906C34.6791 15.5906 35.6297 15.3858 36.2525 14.976C36.8917 14.5662 37.2114 14.0254 37.2114 13.3534C37.2114 12.8617 37.0311 12.4601 36.6705 12.1487C36.3263 11.8209 35.8837 11.5668 35.3429 11.3865C34.802 11.2062 34.0644 11.0014 33.1302 10.7719C31.819 10.4605 30.7536 10.1491 29.9341 9.83766C29.131 9.52624 28.4344 9.04273 27.8443 8.38712C27.2707 7.71512 26.9838 6.81366 26.9838 5.68273C26.9838 4.7321 27.2379 3.87161 27.746 3.10127C28.2705 2.31454 29.049 1.69171 30.0816 1.23278C31.1306 0.773853 32.409 0.54439 33.9169 0.54439C34.9659 0.54439 35.9985 0.675512 37.0147 0.937756C38.0309 1.2 38.9077 1.57698 39.6453 2.06868L38.6373 4.5518C37.8834 4.10927 37.0966 3.77327 36.2771 3.54381C35.4576 3.31434 34.6627 3.19961 33.8923 3.19961C32.6303 3.19961 31.6878 3.41268 31.065 3.83883C30.4586 4.26498 30.1554 4.83044 30.1554 5.53522C30.1554 6.02693 30.3274 6.42849 30.6716 6.7399C31.0322 7.05132 31.483 7.29717 32.0238 7.47746C32.5647 7.65776 33.3023 7.86263 34.2365 8.0921C35.515 8.38712 36.5639 8.69854 37.3835 9.02634C38.203 9.33776 38.8995 9.82127 39.4732 10.4769C40.0633 11.1325 40.3583 12.0176 40.3583 13.1321C40.3583 14.0827 40.096 14.9432 39.5715 15.7136C39.0635 16.4839 38.2849 17.0985 37.2359 17.5575C36.187 18.0164 34.9085 18.2459 33.4006 18.2459ZM50.9277 18.2459C48.5511 18.2459 46.699 17.582 45.3714 16.2544C44.0438 14.9104 43.38 12.9928 43.38 10.5015V0.790243H46.5761V10.3785C46.5761 13.7549 48.0348 15.4431 50.9523 15.4431C53.8533 15.4431 55.3039 13.7549 55.3039 10.3785V0.790243H58.4508V10.5015C58.4508 12.9928 57.787 14.9104 56.4594 16.2544C55.1482 17.582 53.3043 18.2459 50.9277 18.2459ZM74.187 18L70.6713 12.96C70.5238 12.9764 70.3025 12.9846 70.0075 12.9846H66.123V18H62.9269V0.790243H70.0075C71.499 0.790243 72.7938 1.0361 73.892 1.5278C75.0065 2.01951 75.8588 2.72429 76.4488 3.64215C77.0389 4.56 77.3339 5.64995 77.3339 6.912C77.3339 8.20683 77.0143 9.32137 76.3751 10.2556C75.7522 11.1899 74.8508 11.8864 73.6707 12.3454L77.6289 18H74.187ZM74.1132 6.912C74.1132 5.81385 73.7526 4.96976 73.0315 4.37971C72.3103 3.78966 71.2531 3.49463 69.86 3.49463H66.123V10.354H69.86C71.2531 10.354 72.3103 10.0589 73.0315 9.46888C73.7526 8.86244 74.1132 8.01015 74.1132 6.912ZM92.0715 14.0172H83.4666L81.7702 18H78.4758L86.2202 0.790243H89.3671L97.1361 18H93.7925L92.0715 14.0172ZM91.0143 11.5095L87.769 3.98634L84.5484 11.5095H91.0143ZM114.617 0.790243V18H111.986L102.496 6.34654V18H99.3247V0.790243H101.955L111.445 12.4437V0.790243H114.617ZM127.194 18.2459C125.457 18.2459 123.883 17.8689 122.474 17.1149C121.08 16.3446 119.982 15.2874 119.179 13.9434C118.392 12.5994 117.999 11.0833 117.999 9.39512C117.999 7.70693 118.401 6.19083 119.204 4.84683C120.007 3.50283 121.105 2.45385 122.498 1.6999C123.908 0.92956 125.481 0.54439 127.219 0.54439C128.628 0.54439 129.915 0.790244 131.078 1.28195C132.242 1.77366 133.226 2.48663 134.029 3.42088L131.964 5.36312C130.718 4.01912 129.185 3.34712 127.366 3.34712C126.186 3.34712 125.129 3.60937 124.195 4.13385C123.26 4.64195 122.531 5.35493 122.006 6.27278C121.482 7.19063 121.22 8.23141 121.22 9.39512C121.22 10.5588 121.482 11.5996 122.006 12.5175C122.531 13.4353 123.26 14.1565 124.195 14.681C125.129 15.1891 126.186 15.4431 127.366 15.4431C129.185 15.4431 130.718 14.7629 131.964 13.4025L134.029 15.3694C133.226 16.3036 132.234 17.0166 131.054 17.5083C129.89 18 128.604 18.2459 127.194 18.2459ZM149.998 15.3202V18H137.091V0.790243H149.654V3.47005H140.287V7.94459H148.597V10.5752H140.287V15.3202H149.998Z" fill="url(#paint0_linear_964_193)"/>
<defs>
<linearGradient id="paint0_linear_964_193" x1="75" y1="-6" x2="75" y2="24" gradientUnits="userSpaceOnUse">
<stop stop-color="#FFB800"/>
<stop offset="1" stop-color="#FE823A"/>
</linearGradient>
</defs>
</svg>
