<svg width="136" height="136" viewBox="0 0 136 136" fill="none" xmlns="http://www.w3.org/2000/svg">
<g clip-path="url(#clip0_938_34)">
<g opacity="0.4" filter="url(#filter0_f_938_34)">
<path d="M70.5631 113.412L117.362 87.7176V36.3294L70.5631 10.6353L23.7048 36.3294V87.7176" stroke="url(#paint0_linear_938_34)" stroke-width="6" stroke-miterlimit="10"/>
<path d="M78.4666 87.3332L98.7269 76.7996V45.8665L70.4496 30.3999L42.1724 45.8665V67.2666" stroke="url(#paint1_linear_938_34)" stroke-width="6" stroke-miterlimit="10"/>
<path d="M44.8106 117.365C54.2814 117.365 61.959 109.696 61.959 100.235C61.959 90.7751 54.2814 83.106 44.8106 83.106C35.3397 83.106 27.6621 90.7751 27.6621 100.235C27.6621 109.696 35.3397 117.365 44.8106 117.365Z" stroke="url(#paint2_linear_938_34)" stroke-width="6" stroke-miterlimit="10"/>
</g>
<path d="M47.5226 105L83 85.5V46.5L47.5226 27L12 46.5V80" stroke="url(#paint3_linear_938_34)" stroke-width="4" stroke-miterlimit="10"/>
<path d="M47.4366 88.952L68.8732 77.214V53.738L47.4366 42L26 53.738V75" stroke="url(#paint4_linear_938_34)" stroke-width="2" stroke-miterlimit="10"/>
<path d="M26.1472 53.9805L47.3273 65.255L69 53.7266" stroke="url(#paint5_linear_938_34)" stroke-width="2" stroke-miterlimit="10"/>
<path d="M46.9944 65.2549V88.8608" stroke="url(#paint6_linear_938_34)" stroke-width="2" stroke-miterlimit="10"/>
<path d="M28 108C35.1797 108 41 102.18 41 95C41 87.8203 35.1797 82 28 82C20.8203 82 15 87.8203 15 95C15 102.18 20.8203 108 28 108Z" stroke="url(#paint7_linear_938_34)" stroke-width="4" stroke-miterlimit="10"/>
<path d="M28 90V100" stroke="url(#paint8_linear_938_34)" stroke-width="2"/>
<path d="M33 95H23" stroke="url(#paint9_linear_938_34)" stroke-width="2"/>
</g>
<defs>
<filter id="filter0_f_938_34" x="12.7048" y="-0.786621" width="115.657" height="129.151" filterUnits="userSpaceOnUse" color-interpolation-filters="sRGB">
<feFlood flood-opacity="0" result="BackgroundImageFix"/>
<feBlend mode="normal" in="SourceGraphic" in2="BackgroundImageFix" result="shape"/>
<feGaussianBlur stdDeviation="4" result="effect1_foregroundBlur_938_34"/>
</filter>
<linearGradient id="paint0_linear_938_34" x1="70.5334" y1="10.6353" x2="70.5334" y2="113.412" gradientUnits="userSpaceOnUse">
<stop stop-color="#FFB800"/>
<stop offset="1" stop-color="#FE823A"/>
</linearGradient>
<linearGradient id="paint1_linear_938_34" x1="70.4496" y1="30.3999" x2="70.4496" y2="87.3332" gradientUnits="userSpaceOnUse">
<stop stop-color="#FFB800"/>
<stop offset="1" stop-color="#FE823A"/>
</linearGradient>
<linearGradient id="paint2_linear_938_34" x1="44.8106" y1="83.106" x2="44.8106" y2="117.365" gradientUnits="userSpaceOnUse">
<stop stop-color="#FFB800"/>
<stop offset="1" stop-color="#FE823A"/>
</linearGradient>
<linearGradient id="paint3_linear_938_34" x1="47.5" y1="27" x2="47.5" y2="105" gradientUnits="userSpaceOnUse">
<stop stop-color="#FFB800"/>
<stop offset="1" stop-color="#FE823A"/>
</linearGradient>
<linearGradient id="paint4_linear_938_34" x1="47.4366" y1="42" x2="47.4366" y2="88.952" gradientUnits="userSpaceOnUse">
<stop stop-color="#FFB800"/>
<stop offset="1" stop-color="#FE823A"/>
</linearGradient>
<linearGradient id="paint5_linear_938_34" x1="47.5736" y1="53.7266" x2="47.5736" y2="65.255" gradientUnits="userSpaceOnUse">
<stop stop-color="#FFB800"/>
<stop offset="1" stop-color="#FE823A"/>
</linearGradient>
<linearGradient id="paint6_linear_938_34" x1="47.4944" y1="65.2549" x2="47.4944" y2="88.8608" gradientUnits="userSpaceOnUse">
<stop stop-color="#FFB800"/>
<stop offset="1" stop-color="#FE823A"/>
</linearGradient>
<linearGradient id="paint7_linear_938_34" x1="28" y1="82" x2="28" y2="108" gradientUnits="userSpaceOnUse">
<stop stop-color="#FFB800"/>
<stop offset="1" stop-color="#FE823A"/>
</linearGradient>
<linearGradient id="paint8_linear_938_34" x1="28.5" y1="90" x2="28.5" y2="100" gradientUnits="userSpaceOnUse">
<stop stop-color="#FFB800"/>
<stop offset="1" stop-color="#FE823A"/>
</linearGradient>
<linearGradient id="paint9_linear_938_34" x1="28" y1="95" x2="28" y2="96" gradientUnits="userSpaceOnUse">
<stop stop-color="#FFB800"/>
<stop offset="1" stop-color="#FE823A"/>
</linearGradient>
<clipPath id="clip0_938_34">
<rect width="136" height="136" fill="white"/>
</clipPath>
</defs>
</svg>
