<svg width="95" height="105" viewBox="0 0 95 105" fill="none" xmlns="http://www.w3.org/2000/svg">
<path fill-rule="evenodd" clip-rule="evenodd" d="M42.7723 103.052C45.6977 104.705 49.3019 104.705 52.2274 103.052L89.8556 81.7839C92.7811 80.1304 94.5832 77.0747 94.5832 73.7677V31.2324C94.5832 27.9254 92.781 24.8697 89.8555 23.2162L52.2274 1.94848C49.3019 0.295006 45.6977 0.295006 42.7722 1.94848L5.14402 23.2162C2.21864 24.8697 0.416504 27.9254 0.416504 31.2324V73.7677C0.416504 77.0747 2.21865 80.1304 5.14414 81.7839L42.7723 103.052ZM28.7259 85.0423C27.6276 84.4081 26.804 83.0433 26.4705 80.7413C26.1395 78.4561 26.3289 75.4508 27.0554 71.9005C27.4955 69.7495 28.1278 67.4231 28.943 64.969C32.2184 65.5976 35.7815 66.0637 39.5425 66.3385C41.6415 69.4554 43.801 72.3187 45.9561 74.8687C44.2538 76.7809 42.5707 78.4744 40.9424 79.9182C38.231 82.3225 35.723 83.9891 33.5785 84.8451C31.4182 85.7073 29.8244 85.6765 28.7259 85.0423ZM47.5138 73.0636C45.8447 71.0703 44.168 68.8775 42.5171 66.5138C44.149 66.5871 45.8122 66.6249 47.4998 66.6249C49.1974 66.6249 50.8703 66.5867 52.5115 66.5125C50.8603 68.8767 49.1833 71.0699 47.5138 73.0636ZM42.5044 81.6796C44.1409 80.2284 45.8212 78.545 47.5138 76.6584C49.2065 78.545 50.8869 80.2284 52.5234 81.6796C55.343 84.1798 58.0833 86.0364 60.5766 87.0315C63.0542 88.0204 65.4879 88.2305 67.4788 87.0811C69.4696 85.9317 70.5046 83.7189 70.8871 81.0788C71.2719 78.422 71.0342 75.1204 70.2786 71.4285C69.8342 69.2562 69.2055 66.9254 68.4024 64.48C70.6043 63.9832 72.6529 63.4094 74.5168 62.7686C77.9958 61.5728 80.8954 60.1221 82.9489 58.4533C84.9928 56.7922 86.3436 54.7873 86.3436 52.4999C86.3436 50.2125 84.9928 48.2077 82.9489 46.5466C80.8954 44.8777 77.9958 43.4271 74.5168 42.2312C72.6532 41.5906 70.6049 41.0168 68.4033 40.52C69.2064 38.0744 69.8351 35.7437 70.2797 33.5714C71.0351 29.8793 71.2728 26.5778 70.888 23.9209C70.5057 21.2808 69.4707 19.0682 67.4798 17.9187C65.489 16.7693 63.0551 16.9793 60.5776 17.9683C58.0843 18.9634 55.3439 20.82 52.5243 23.3203C50.8875 24.7717 49.2068 26.4554 47.5138 28.3424C45.8208 26.4554 44.1402 24.7717 42.5034 23.3203C39.6838 20.82 36.9434 18.9634 34.4501 17.9683C31.9726 16.9793 29.5388 16.7693 27.5479 17.9187C25.5571 19.0682 24.5221 21.2808 24.1397 23.921C23.7549 26.5778 23.9925 29.8793 24.7481 33.5714C25.1922 35.7419 25.8203 38.0708 26.6225 40.514C24.4109 41.0123 22.3538 41.588 20.4828 42.2312C17.0038 43.4271 14.1042 44.8777 12.0508 46.5466C10.0069 48.2077 8.65609 50.2125 8.65609 52.4999C8.65609 54.7873 10.0069 56.7922 12.0508 58.4533C14.1042 60.1221 17.0038 61.5728 20.4828 62.7686C22.354 63.4118 24.4115 63.9877 26.6233 64.4859C25.8213 66.9292 25.1932 69.2579 24.7491 71.4285C23.9936 75.1204 23.7558 78.422 24.1406 81.0788C24.5231 83.7189 25.5581 85.9317 27.5489 87.0811C29.5398 88.2305 31.9735 88.0204 34.4512 87.0315C36.9445 86.0364 39.6848 84.1798 42.5044 81.6796ZM67.9723 71.9005C67.5318 69.7481 66.8991 67.4199 66.083 64.9639C62.809 65.5934 59.2469 66.0605 55.4867 66.3364C53.3871 69.4542 51.2273 72.3181 49.0717 74.8687C50.7739 76.7809 52.4571 78.4744 54.0853 79.9182C56.7967 82.3225 59.3047 83.9891 61.4493 84.8451C63.6096 85.7073 65.2033 85.6765 66.3017 85.0423C67.4002 84.4081 68.2238 83.0433 68.5571 80.7413C68.8881 78.4561 68.6989 75.4508 67.9723 71.9005ZM73.7515 60.5423C71.9014 61.1783 69.8495 61.7485 67.6297 62.2405C66.5031 59.1229 65.1123 55.8485 63.476 52.5009C65.1128 49.1528 66.5038 45.8778 67.6306 42.7594C69.8499 43.2515 71.9016 43.8216 73.7515 44.4575C77.0889 45.6047 79.7054 46.9441 81.4641 48.3734C83.2322 49.8104 83.9894 51.2118 83.9894 52.4999C83.9894 53.7879 83.2322 55.1893 81.4641 56.6263C79.7054 58.0556 77.0889 59.395 73.7515 60.5423ZM65.2979 62.7168C64.4082 60.2863 63.3514 57.751 62.1355 55.1534C61.3748 56.6108 60.5696 58.0776 59.721 59.5474C58.8715 61.0187 58.0029 62.451 57.1201 63.8397C60.0036 63.5755 62.7445 63.1957 65.2979 62.7168ZM57.6822 58.3703C58.8202 56.3992 59.8767 54.4372 60.8488 52.5009C59.8765 50.564 58.8196 48.6012 57.6813 46.6295C56.5394 44.6516 55.3642 42.7492 54.1691 40.9337C52.0076 40.7994 49.7788 40.7291 47.4998 40.7291C45.2311 40.7291 43.0121 40.7988 40.8598 40.9318C39.6643 42.7479 38.4888 44.6509 37.3464 46.6295C36.2081 48.6012 35.1512 50.564 34.1789 52.5009C35.1509 54.4372 36.2075 56.3992 37.3455 58.3703C38.4878 60.3488 39.6633 62.2518 40.8588 64.0679C43.0115 64.2011 45.2308 64.2708 47.4998 64.2708C49.7791 64.2708 52.0083 64.2004 54.1701 64.0661C55.3652 62.2505 56.5403 60.3482 57.6822 58.3703ZM65.2987 42.2832C64.4089 44.7142 63.3518 47.2501 62.1356 49.8484C61.3746 48.3904 60.569 46.9228 59.72 45.4524C58.8706 43.9811 58.0019 42.5487 57.1192 41.16C60.0033 41.4243 62.7448 41.8041 65.2987 42.2832ZM66.0839 40.036C62.8093 39.4064 59.2465 38.9392 55.4856 38.6633C53.3864 35.546 51.227 32.6825 49.0716 30.1322C50.7741 28.2195 52.4577 26.5257 54.0862 25.0816C56.7977 22.6773 59.3056 21.0107 61.4503 20.1547C63.6106 19.2924 65.2042 19.3234 66.3027 19.9576C67.4011 20.5917 68.2247 21.9564 68.5582 24.2584C68.8892 26.5437 68.6998 29.5489 67.9733 33.0994C67.5329 35.2518 66.9 37.58 66.0839 40.036ZM40.9415 25.0816C42.57 26.5258 44.2536 28.2195 45.9561 30.1322C43.8013 32.682 41.6422 35.5447 39.5435 38.6611C35.7819 38.936 32.218 39.4023 28.9422 40.031C28.1268 37.5769 27.4946 35.2504 27.0545 33.0994C26.3279 29.5489 26.1386 26.5437 26.4696 24.2584C26.8029 21.9564 27.6266 20.5917 28.725 19.9576C29.8235 19.3234 31.4171 19.2924 33.5774 20.1547C35.7221 21.0107 38.2301 22.6773 40.9415 25.0816ZM21.2482 44.4575C23.1053 43.8192 25.1657 43.247 27.395 42.7537C28.5222 45.8736 29.914 49.1506 31.5518 52.5009C29.9143 55.8505 28.5229 59.1269 27.396 62.2463C25.1662 61.753 23.1055 61.1808 21.2482 60.5423C17.9108 59.395 15.2942 58.0556 13.5356 56.6263C11.7675 55.1893 11.0103 53.7879 11.0103 52.4999C11.0103 51.2118 11.7675 49.8104 13.5356 48.3734C15.2942 46.9441 17.9108 45.6047 21.2482 44.4575ZM29.7272 42.2782C30.6174 44.7108 31.675 47.2485 32.8922 49.8484C33.6531 48.3904 34.4588 46.9228 35.3077 45.4524C36.1577 43.9802 37.027 42.5469 37.9103 41.1573C35.0251 41.4207 32.2825 41.7999 29.7272 42.2782ZM29.728 62.7217C30.6181 60.2897 31.6755 57.7528 32.8922 55.1534C33.6529 56.6108 34.4582 58.0776 35.3068 59.5474C36.1568 61.0196 37.0259 62.4529 37.9093 63.8424C35.0249 63.579 32.2827 63.2 29.728 62.7217ZM52.5106 38.4872C50.8597 36.1235 49.1829 33.9307 47.5138 31.9375C45.8451 33.9304 44.1687 36.1227 42.5181 38.4859C44.1497 38.4126 45.8126 38.3749 47.4998 38.3749C49.1971 38.3749 50.8696 38.4131 52.5106 38.4872ZM55.7394 52.4999C55.7394 57.0505 52.0504 60.7395 47.4998 60.7395C42.9492 60.7395 39.2603 57.0505 39.2603 52.4999C39.2603 47.9493 42.9492 44.2603 47.4998 44.2603C52.0504 44.2603 55.7394 47.9493 55.7394 52.4999Z" fill="white"/>
</svg>
